<svg xmlns="http://www.w3.org/2000/svg" viewBox="0 0 393.79 425.28"><defs><style>.cls-1{fill:#fafafa;}.cls-2{fill:#f0f0f0;}.cls-10,.cls-11,.cls-13,.cls-15,.cls-17,.cls-18,.cls-3{fill:#fff;}.cls-4{fill:#ebebeb;}.cls-5{fill:#e0e0e0;}.cls-6{fill:#f5f5f5;}.cls-7{fill:#407bff;}.cls-11,.cls-18,.cls-8{opacity:0.1;}.cls-9{fill:none;stroke:#fff;stroke-miterlimit:10;stroke-width:0.5px;opacity:0.8;}.cls-10,.cls-21,.cls-22{opacity:0.4;}.cls-11{isolation:isolate;}.cls-12,.cls-13,.cls-20{opacity:0.2;}.cls-14{opacity:0.3;}.cls-15{opacity:0.5;}.cls-16,.cls-21{fill:#263238;}.cls-17{opacity:0.7;}.cls-19{fill:#ff8b7b;}.cls-23{fill:#a02724;}</style></defs><g id="Shadows"><g id="Shadows-2" data-name="Shadows"><ellipse id="path--inject-112" class="cls-1" cx="193.89" cy="413.96" rx="193.89" ry="11.32"/></g></g><g id="Background_Complete" data-name="Background Complete"><polygon class="cls-2" points="22.33 166.24 15.16 166.24 13.18 163.64 24.32 163.64 22.33 166.24"/><path class="cls-2" d="M89.45,184.3a14.59,14.59,0,0,1-4.9,10.86,9.61,9.61,0,0,0-3.32,7.15v1.11H68.48v-1.11a9.61,9.61,0,0,0-3.31-7.14,14.59,14.59,0,0,1,10.45-25.49A14.71,14.71,0,0,1,89.45,184.3Z" transform="translate(-56.11 -49.94)"/><rect class="cls-3" x="70.38" y="188.19" width="0.88" height="15.32" transform="translate(-93.86 -31.81) rotate(-11.54)"/><rect class="cls-3" x="71.23" y="195.41" width="15.32" height="0.88" transform="translate(-184.85 184.21) rotate(-78.51)"/><polygon class="cls-3" points="20.51 144.93 18.75 141.74 16.98 144.93 13.66 141.12 14.32 140.54 16.82 143.41 18.75 139.92 20.68 143.41 23.17 140.54 23.83 141.12 20.51 144.93"/><polygon class="cls-2" points="25.12 153.41 25.12 163.57 12.38 163.64 12.38 153.48 25.12 153.41"/><rect class="cls-3" x="68.48" y="213.1" width="12.74" height="0.88" transform="translate(-57.37 -49.49) rotate(-0.34)"/><rect class="cls-3" x="68.48" y="202.95" width="12.74" height="0.88" transform="translate(-57.31 -49.49) rotate(-0.34)"/><polygon class="cls-4" points="327.17 398.3 275.29 398.3 291.98 413.44 345.48 413.44 327.17 398.3"/><polygon class="cls-3" points="268.37 421.23 229.87 400.65 261.97 388.87 299.26 407.28 268.37 421.23"/><polygon class="cls-5" points="236.86 393.62 283.15 393.62 269.15 410.93 217.84 410.93 236.86 393.62"/><circle class="cls-2" cx="363.73" cy="43.64" r="19.55"/><path class="cls-3" d="M419.89,113.57a20,20,0,0,1,0-40v.88a19.11,19.11,0,0,0,0,38.22Z" transform="translate(-56.11 -49.94)"/><path class="cls-3" d="M419.89,113.57v-.88a19.11,19.11,0,1,0,0-38.22v-.88a20,20,0,1,1,0,40Z" transform="translate(-56.11 -49.94)"/><path class="cls-3" d="M430.11,93.58h-.88c0-6.48-3.29-15.14-9.58-19.18l.48-.74C426.68,77.87,430.11,86.86,430.11,93.58Z" transform="translate(-56.11 -49.94)"/><path class="cls-3" d="M420.13,112.9l-.48-.74c6.29-4,9.58-12.7,9.58-19.17h.88C430.11,99.7,426.68,108.7,420.13,112.9Z" transform="translate(-56.11 -49.94)"/><path class="cls-3" d="M410.56,93.58h-.88c0-6.72,3.42-15.72,10-19.92l.48.74C413.85,78.43,410.56,87.1,410.56,93.58Z" transform="translate(-56.11 -49.94)"/><path class="cls-3" d="M419.65,112.9c-6.55-4.2-10-13.2-10-19.92h.88c0,6.48,3.29,15.15,9.57,19.18Z" transform="translate(-56.11 -49.94)"/><rect class="cls-3" x="363.34" y="24.09" width="0.88" height="39.1"/><rect class="cls-3" x="347.23" y="32.79" width="33.09" height="0.88"/><rect class="cls-3" x="344.24" y="43.53" width="39.08" height="0.88"/><rect class="cls-3" x="347.67" y="54.27" width="32.22" height="0.88"/><path class="cls-5" d="M365.47,200.81a114.58,114.58,0,0,0-5-33.53l29.41-25.87L371.4,109.33l-37.11,12.56a115.25,115.25,0,0,0-58.06-33.55l-7.71-38.4h-37l-7.68,38.4a115.34,115.34,0,0,0-58.09,33.55L128.6,109.33l-18.52,32.08,29.41,25.87a115.88,115.88,0,0,0,0,67.08L110.08,260.2l18.52,32.08,37.11-12.55a115.75,115.75,0,0,0,58.09,33.58l7.68,38.4h37l7.71-38.4a115.66,115.66,0,0,0,58.06-33.58l37.11,12.55,18.52-32.08-29.41-25.84A114.71,114.71,0,0,0,365.47,200.81ZM250,263.14a60,60,0,1,1,60-60A60,60,0,0,1,250,263.14Z" transform="translate(-56.11 -49.94)"/><path class="cls-2" d="M425.2,339.4c-3.08-1.69.7-15.89-3.46-22.1-3-4.54-8.57-7.3-10.6-12.38a12.09,12.09,0,0,1,2.59-12.71,2.75,2.75,0,0,1,1-.75,3.29,3.29,0,0,1,1.4-.08c2.7.27,5.5.72,7.75,2.25,2.76,1.89,4.29,5.19,4.78,8.5S428.46,341.19,425.2,339.4Z" transform="translate(-56.11 -49.94)"/><path class="cls-2" d="M426.64,319.42c0-.36,0-.71-.05-1.07a12.42,12.42,0,0,0-.11,1.72Z" transform="translate(-56.11 -49.94)"/><path class="cls-2" d="M436.42,295.79a1.73,1.73,0,0,0-.61-.53,2,2,0,0,0-.87-.12,10.24,10.24,0,0,0-5,1,7.74,7.74,0,0,0-3.48,5.08,22.89,22.89,0,0,0-.32,6.3l.45,10.85a12.94,12.94,0,0,1,3.4-7.22c2.37-2.51,5.79-4.12,7.35-7.2A7.63,7.63,0,0,0,436.42,295.79Z" transform="translate(-56.11 -49.94)"/><path class="cls-2" d="M431.32,361.33c0-.18,0-.35,0-.52-.81-11.05-2.87-31.48-12.76-41.32-2-2.05-5.5-3.52-8.46-2.54a7.17,7.17,0,0,0-2.8,1.84c-3.24,3.26-4.19,7.65-4.06,11.83a28.81,28.81,0,0,0,4.64,14.6c4,6.17,10.15,11.18,15.2,16.8s-.4,21.55,7.73,19.31C431.52,381.13,431.34,363.69,431.32,361.33Z" transform="translate(-56.11 -49.94)"/><path class="cls-2" d="M426.28,369.2q.33-15.17.65-30.32c.2-9.36.79-19.58,8.41-26.75,1.94-1.82,4.88-3.48,7.64-2.72a6.48,6.48,0,0,1,2.65,1.56c3.11,2.83,4.19,6.81,4.27,10.64a26.45,26.45,0,0,1-3.57,13.6c-3.33,5.83-8.77,10.71-13.14,16.1S434.58,371,427,369.36Z" transform="translate(-56.11 -49.94)"/><path class="cls-6" d="M438.81,407.46h0a35.87,35.87,0,0,1-21.65,0h0l-8.47-38.59h38.59Z" transform="translate(-56.11 -49.94)"/><rect class="cls-3" x="354.23" y="325.56" width="35.19" height="0.8"/></g><g id="Smartphone_Screen" data-name="Smartphone Screen"><g id="_Group_" data-name="&lt;Group&gt;"><path class="cls-7" d="M381.24,319.64H323.76a8.9,8.9,0,0,1-9-9.87l10.94-125.09a11,11,0,0,1,10.74-9.87h57.48a8.9,8.9,0,0,1,9,9.87L392,309.77A11,11,0,0,1,381.24,319.64Z" transform="translate(-56.11 -49.94)"/><path class="cls-8" d="M381.24,319.64H323.76a8.9,8.9,0,0,1-9-9.87l10.94-125.09a11,11,0,0,1,10.74-9.87h57.48a8.9,8.9,0,0,1,9,9.87L392,309.77A11,11,0,0,1,381.24,319.64Z" transform="translate(-56.11 -49.94)"/><path class="cls-9" d="M357.84,310.42a5.22,5.22,0,0,1-5.1,4.69,4.23,4.23,0,0,1-4.29-4.69,5.23,5.23,0,0,1,5.11-4.7A4.23,4.23,0,0,1,357.84,310.42Z" transform="translate(-56.11 -49.94)"/><path class="cls-9" d="M373.54,186H354.93a1.58,1.58,0,0,1-1.6-1.75l0-.43a1.94,1.94,0,0,1,1.9-1.75h18.61a1.58,1.58,0,0,1,1.6,1.75l0,.43A1.94,1.94,0,0,1,373.54,186Z" transform="translate(-56.11 -49.94)"/><polygon class="cls-10" points="330.91 248.86 264.7 248.86 274.04 142.15 340.24 142.15 330.91 248.86"/><polygon class="cls-11" points="313.72 125.32 281.66 269.7 300.93 269.7 332.67 125.32 313.72 125.32"/><polygon class="cls-11" points="298.73 125.32 266.67 269.7 276.38 269.7 308.12 125.32 298.73 125.32"/><polygon class="cls-7" points="285.75 243.09 269.38 243.09 270.37 231.78 286.73 231.78 285.75 243.09"/><polygon class="cls-7" points="306.51 243.09 290.14 243.09 291.13 231.78 307.5 231.78 306.51 243.09"/><polygon class="cls-7" points="327.28 243.09 310.91 243.09 311.9 231.78 328.27 231.78 327.28 243.09"/><polygon class="cls-7" points="329.81 214.23 271.9 214.23 271.81 215.23 329.72 215.23 329.81 214.23"/><polygon class="cls-12" points="329.81 214.23 271.9 214.23 271.81 215.23 329.72 215.23 329.81 214.23"/><polygon class="cls-7" points="330.14 210.41 324.8 210.41 325.27 205.07 330.61 205.07 330.14 210.41"/><polygon class="cls-7" points="303.88 210.41 298.54 210.41 299.01 205.07 304.35 205.07 303.88 210.41"/><polygon class="cls-7" points="277.62 210.41 272.28 210.41 272.75 205.07 278.09 205.07 277.62 210.41"/><polygon class="cls-7" points="328.89 224.69 313.7 224.69 314.02 221.02 329.21 221.02 328.89 224.69"/><polygon class="cls-7" points="310.89 199.26 273.28 199.26 273.61 195.53 311.22 195.53 310.89 199.26"/><polygon class="cls-13" points="310.89 199.26 273.28 199.26 273.61 195.53 311.22 195.53 310.89 199.26"/><polygon class="cls-7" points="294.94 149.88 277.6 149.88 277.95 145.92 295.29 145.92 294.94 149.88"/><polygon class="cls-13" points="294.94 149.88 277.6 149.88 277.95 145.92 295.29 145.92 294.94 149.88"/><path class="cls-7" d="M331.54,277.23h0a4.15,4.15,0,0,1-4.2-4.6h0a5.12,5.12,0,0,1,5-4.6h0a4.15,4.15,0,0,1,4.2,4.6h0A5.12,5.12,0,0,1,331.54,277.23Z" transform="translate(-56.11 -49.94)"/><polygon class="cls-7" points="331.62 192.53 273.84 192.53 277.33 152.62 335.12 152.62 331.62 192.53"/><path class="cls-14" d="M325.4,188h21.06a10,10,0,0,0,9.81-9l.36-4.14H336.72A11.31,11.31,0,0,0,325.67,185Z" transform="translate(-56.11 -49.94)"/></g></g><g id="Monitor_Screen" data-name="Monitor Screen"><g id="_Group_2" data-name="&lt;Group&gt;"><polygon class="cls-7" points="288.33 124.96 118.71 124.96 128.11 17.43 297.74 17.43 288.33 124.96"/><path class="cls-7" d="M342.1,183.31H175a7.73,7.73,0,0,1-7.83-8.58l9.35-106.86a9.55,9.55,0,0,1,9.33-8.59H353a7.75,7.75,0,0,1,7.83,8.59l-9.35,106.86A9.55,9.55,0,0,1,342.1,183.31Z" transform="translate(-56.11 -49.94)"/><polygon class="cls-7" points="288.33 124.96 118.71 124.96 128.11 17.43 297.74 17.43 288.33 124.96"/><polygon class="cls-10" points="288.33 124.96 118.71 124.96 128.11 17.43 297.74 17.43 288.33 124.96"/><polygon class="cls-7" points="277.33 48.63 246.19 48.63 247.72 31.11 278.87 31.11 277.33 48.63"/><polygon class="cls-7" points="274.31 83.19 243.16 83.19 244.7 65.67 275.84 65.67 274.31 83.19"/><polygon class="cls-7" points="271.29 117.75 240.14 117.75 241.67 100.23 272.82 100.23 271.29 117.75"/><polygon class="cls-7" points="137.54 104.33 137.45 105.33 227.34 105.33 227.43 104.33 137.54 104.33"/><polygon class="cls-12" points="227.43 104.33 137.54 104.33 137.45 105.33 227.34 105.33 227.43 104.33"/><polygon class="cls-11" points="149.19 9.4 116.06 133.32 127.2 133.32 159.97 9.4 149.19 9.4"/><polygon class="cls-11" points="166.39 9.4 133.26 133.32 155.37 133.32 188.13 9.4 166.39 9.4"/><polygon class="cls-7" points="228.43 92.89 138.65 92.89 144.08 30.88 233.85 30.88 228.43 92.89"/><path class="cls-7" d="M197.23,167.28h0a4.15,4.15,0,0,1-4.2-4.6h0a5.12,5.12,0,0,1,5-4.6h0a4.15,4.15,0,0,1,4.2,4.6h0A5.12,5.12,0,0,1,197.23,167.28Z" transform="translate(-56.11 -49.94)"/><polygon class="cls-7" points="182.87 100.51 137.99 100.51 138.33 96.55 183.22 96.55 182.87 100.51"/><polygon class="cls-13" points="182.87 100.51 137.99 100.51 138.33 96.55 183.22 96.55 182.87 100.51"/><polygon class="cls-7" points="226.46 114.72 209.12 114.72 209.47 110.76 226.81 110.76 226.46 114.72"/><polygon class="cls-7" points="227.76 100.51 223.8 100.51 224.14 96.55 228.11 96.55 227.76 100.51"/><polygon class="cls-7" points="221.04 100.51 217.08 100.51 217.43 96.55 221.39 96.55 221.04 100.51"/><polygon class="cls-7" points="214.32 100.51 210.36 100.51 210.71 96.55 214.67 96.55 214.32 100.51"/><polygon class="cls-15" points="234.19 27.07 166.86 27.07 167.16 23.66 234.49 23.66 234.19 27.07"/><polygon class="cls-7" points="161.54 27.34 144.2 27.34 144.54 23.38 161.89 23.38 161.54 27.34"/><polygon class="cls-13" points="161.54 27.34 144.2 27.34 144.54 23.38 161.89 23.38 161.54 27.34"/></g></g><g id="Drawing_Table" data-name="Drawing Table"><g id="Drawing_Table-2" data-name="Drawing Table"><polygon class="cls-16" points="224.95 154.13 230.36 154.13 220.41 264.31 215.27 264.31 224.95 154.13"/><polygon class="cls-13" points="224.95 154.13 230.36 154.13 220.41 264.31 215.27 264.31 224.95 154.13"/><rect class="cls-16" x="283.04" y="256.87" width="1" height="53.78" transform="translate(-90.8 -10.4) rotate(-7.52)"/><polygon class="cls-7" points="217.83 258.38 51.14 258.38 60.26 154.13 226.95 154.13 217.83 258.38"/><polygon class="cls-17" points="217.83 258.38 51.14 258.38 60.26 154.13 226.95 154.13 217.83 258.38"/><polygon class="cls-16" points="87.66 270.88 94.56 270.88 105.84 417.28 100.85 417.28 87.66 270.88"/><polygon class="cls-16" points="253.45 269.88 260.36 269.88 271.63 417.28 266.64 417.28 253.45 269.88"/><rect class="cls-7" x="52.52" y="269.88" width="205.78" height="23.21"/><polygon class="cls-14" points="222.16 270.06 221.35 293.07 258.3 293.09 258.3 269.88 222.16 270.06"/><rect class="cls-12" x="52.55" y="270.06" width="166.48" height="23.21"/><polygon class="cls-16" points="57.07 269.88 50.17 269.88 49.96 417.28 54.94 417.28 57.07 269.88"/><polygon class="cls-16" points="222.86 269.88 215.96 269.88 215.75 417.28 220.74 417.28 222.86 269.88"/><polygon class="cls-13" points="50.17 269.88 49.96 417.28 54.94 417.28 57.07 269.88 50.17 269.88"/><polygon class="cls-18" points="222.86 269.88 215.96 269.88 215.75 417.28 220.74 417.28 222.86 269.88"/><path class="cls-16" d="M100.54,314.25h0c0-3.13,1.16-5.66,2.6-5.67H319.6c1.44,0,2.6,2.54,2.6,5.67h0c0,3.12-1.16,5.65-2.6,5.66H103.14C101.7,319.9,100.54,317.37,100.54,314.25Z" transform="translate(-56.11 -49.94)"/><path class="cls-18" d="M100.54,314.25h0c0-3.13,1.16-5.66,2.6-5.67H319.6c1.44,0,2.6,2.54,2.6,5.67h0c0,3.12-1.16,5.65-2.6,5.66H103.14C101.7,319.9,100.54,317.37,100.54,314.25Z" transform="translate(-56.11 -49.94)"/><path class="cls-16" d="M266.33,314.25h0c0-3.13,1.17-5.66,2.6-5.67H319.6c1.44,0,2.6,2.54,2.6,5.67h0c0,3.12-1.16,5.65-2.6,5.66H268.93C267.5,319.9,266.33,317.37,266.33,314.25Z" transform="translate(-56.11 -49.94)"/><polygon class="cls-3" points="207.21 244.95 156.76 244.95 163.87 163.63 214.33 163.63 207.21 244.95"/><path class="cls-3" d="M263.78,295.39H212.33l7.2-82.33H271Zm-50.37-1h49.46l7-80.33H220.44Z" transform="translate(-56.11 -49.94)"/><path class="cls-5" d="M229.37,291.26H217.08l.75-8.65h12.29Zm-11.75-.5h11.29l.67-7.65H218.29Z" transform="translate(-56.11 -49.94)"/><path class="cls-5" d="M244.33,291.26H232l.76-8.65h12.29Zm-11.75-.5h11.29l.67-7.65H233.25Z" transform="translate(-56.11 -49.94)"/><path class="cls-5" d="M259.28,291.26H247l.76-8.65H260Zm-11.74-.5h11.28l.67-7.65H248.21Z" transform="translate(-56.11 -49.94)"/><rect class="cls-5" x="163.03" y="220.4" width="41.71" height="0.5"/><path class="cls-5" d="M247.57,258.69H220l.27-3.18h27.59Zm-27-.5h26.59l.19-2.18H220.71Z" transform="translate(-56.11 -49.94)"/><path class="cls-5" d="M260.36,279H248.91l.28-3.15h11.44Zm-10.9-.5H259.9l.18-2.15H249.65Z" transform="translate(-56.11 -49.94)"/><path class="cls-5" d="M261.43,266.72h-4.35l.38-4.35h4.35Zm-3.8-.5H261l.29-3.35h-3.34Z" transform="translate(-56.11 -49.94)"/><path class="cls-5" d="M242.52,266.72h-4.35l.38-4.35h4.35Zm-3.81-.5h3.35l.29-3.35H239Z" transform="translate(-56.11 -49.94)"/><path class="cls-5" d="M223.61,266.72h-4.35l.38-4.35H224Zm-3.81-.5h3.35l.29-3.35h-3.35Z" transform="translate(-56.11 -49.94)"/><path class="cls-5" d="M236.26,221.13h-13l.3-3.36h13Zm-12.45-.5h12l.2-2.36H224Z" transform="translate(-56.11 -49.94)"/><path class="cls-5" d="M222.26,279.88h-1.1a2.75,2.75,0,0,1-2.77-3l.1-1.09a3.33,3.33,0,0,1,3.25-3h1.09a2.75,2.75,0,0,1,2.78,3l-.1,1.09A3.33,3.33,0,0,1,222.26,279.88Zm-.52-6.63a2.84,2.84,0,0,0-2.76,2.54l-.09,1.09a2.25,2.25,0,0,0,2.27,2.5h1.1a2.84,2.84,0,0,0,2.76-2.54l.09-1.09a2.29,2.29,0,0,0-.58-1.77,2.27,2.27,0,0,0-1.7-.73Z" transform="translate(-56.11 -49.94)"/><path class="cls-5" d="M262.59,252.84H220.47l0-.27,2.53-29h42.12l0,.27Zm-41.58-.5h41.12l2.47-28.24H223.48Z" transform="translate(-56.11 -49.94)"/><rect class="cls-5" x="242.56" y="213.96" width="0.5" height="48.53" transform="translate(-149.06 242.82) rotate(-53.68)"/><rect class="cls-5" x="218.46" y="244.67" width="28.14" height="0.5" transform="translate(-152.08 116.62) rotate(-33.07)"/><polygon class="cls-5" points="172.88 241.27 161.8 233.13 162.1 232.72 173.18 240.87 172.88 241.27"/><rect class="cls-5" x="216.14" y="286.69" width="14.92" height="0.5" transform="translate(-176.45 118.55) rotate(-33.07)"/><polygon class="cls-5" points="187.84 241.27 176.76 233.13 177.06 232.72 188.13 240.87 187.84 241.27"/><rect class="cls-5" x="231.1" y="286.69" width="14.92" height="0.5" transform="translate(-174.05 126.77) rotate(-33.08)"/><polygon class="cls-5" points="202.79 241.27 191.72 233.13 192.01 232.72 203.09 240.87 202.79 241.27"/><rect class="cls-5" x="246.06" y="286.69" width="14.92" height="0.5" transform="translate(-171.63 134.93) rotate(-33.08)"/><polygon class="cls-3" points="150.43 227.37 57.18 227.37 62.74 163.82 155.99 163.82 150.43 227.37"/><path class="cls-3" d="M207,277.81H112.75l5.65-64.55h94.24Zm-93.16-1h92.24l5.47-62.55H119.31Z" transform="translate(-56.11 -49.94)"/><rect class="cls-5" x="68.03" y="216.06" width="50.62" height="0.5"/><path class="cls-5" d="M175.84,256.77h-51l0-.27,3.07-35.14h51.06l0,.27Zm-50.51-.5h50.05l3-34.41h-50Z" transform="translate(-56.11 -49.94)"/><path class="cls-5" d="M126.87,273.54h-1.38a2,2,0,0,1-1.48-.63,2,2,0,0,1-.5-1.54l.12-1.38a2.38,2.38,0,0,1,2.32-2.13h1.37a2,2,0,0,1,1.48.64,2,2,0,0,1,.51,1.53l-.12,1.38A2.39,2.39,0,0,1,126.87,273.54Zm-.92-5.18a1.86,1.86,0,0,0-1.82,1.67l-.12,1.38a1.45,1.45,0,0,0,1.48,1.63h1.38a1.87,1.87,0,0,0,1.82-1.67l.12-1.38a1.47,1.47,0,0,0-1.49-1.63Z" transform="translate(-56.11 -49.94)"/><path class="cls-5" d="M150,263.07H124.23l.24-2.74h25.78Zm-25.23-.5h24.77l.16-1.74H124.93Z" transform="translate(-56.11 -49.94)"/><path class="cls-5" d="M174.47,272.07H164.2l.24-2.74h10.27Zm-9.72-.5H174l.16-1.74H164.9Z" transform="translate(-56.11 -49.94)"/><path class="cls-5" d="M175.29,263.07h-2.73l.23-2.74h2.74Zm-2.19-.5h1.73l.15-1.74h-1.73Z" transform="translate(-56.11 -49.94)"/><path class="cls-5" d="M171.51,263.07h-2.74l.24-2.74h2.74Zm-2.19-.5h1.73l.15-1.74h-1.73Z" transform="translate(-56.11 -49.94)"/><path class="cls-5" d="M167.72,263.07H165l.24-2.74H168Zm-2.18-.5h1.73l.15-1.74h-1.73Z" transform="translate(-56.11 -49.94)"/><path class="cls-5" d="M179.17,218.71H140.75l.21-2.43h38.42Zm-37.87-.5h37.41l.13-1.43H141.42Z" transform="translate(-56.11 -49.94)"/><path class="cls-5" d="M138.26,218.86H128l.24-2.73H138.5Zm-9.72-.5h9.26l.16-1.73h-9.27Z" transform="translate(-56.11 -49.94)"/><path class="cls-5" d="M203.29,232.85h-18l.91-10.37h18Zm-17.49-.5h17l.83-9.37h-17Z" transform="translate(-56.11 -49.94)"/><path class="cls-5" d="M201.59,252.31h-18l.91-10.37h18Zm-17.5-.5h17l.82-9.37h-17Z" transform="translate(-56.11 -49.94)"/><path class="cls-5" d="M199.89,271.77h-18l.9-10.37h18Zm-17.5-.5h17l.82-9.37h-17Z" transform="translate(-56.11 -49.94)"/><rect class="cls-5" x="184.29" y="227.42" width="20.88" height="0.5" transform="translate(-140.63 69.23) rotate(-28.23)"/><polygon class="cls-5" points="146.83 182.88 130.15 173.01 130.41 172.58 147.08 182.45 146.83 182.88"/><rect class="cls-5" x="182.58" y="246.88" width="20.88" height="0.5" transform="matrix(0.88, -0.47, 0.47, 0.88, -149.88, 70.39)"/><rect class="cls-5" x="192.77" y="237.44" width="0.5" height="19.38" transform="matrix(0.51, -0.86, 0.86, 0.51, -174.06, 237.48)"/><path class="cls-5" d="M181.83,272l.94-10.72,8.56,5.06,9.07-4.87.24.45-8.81,4.72,8,4.71-.26.43-8.21-4.87Zm1.37-9.89-.79,9,8.4-4.5Z" transform="translate(-56.11 -49.94)"/><rect class="cls-5" x="119.87" y="238.81" width="63.98" height="0.5" transform="translate(-161.95 71.65) rotate(-33.07)"/><rect class="cls-5" x="151.61" y="209.59" width="0.5" height="58.95" transform="translate(-186.81 169.89) rotate(-53.68)"/></g></g><g id="Character"><g id="Character-2" data-name="Character"><path class="cls-19" d="M182.61,434.3l-1.1,24.37s9,2.79,9.88-.92c.57-2.28,2.27-10.22,3.8-16.41.59-2.35,0-4.61-1.2-5.49C192,434.39,188.61,434.42,182.61,434.3Z" transform="translate(-56.11 -49.94)"/><path class="cls-19" d="M126.68,433.05l-9.35,18.45s5.33,6.74,7.56,4c3-3.68,12.79-15.68,12.79-15.68S141.08,440.3,126.68,433.05Z" transform="translate(-56.11 -49.94)"/><polygon class="cls-12" points="66.15 391.82 76.49 396.16 80.65 391.05 68.77 386.65 66.15 391.82"/><polygon class="cls-12" points="126.1 393.33 125.84 398.94 137.29 398.94 138.69 393.33 126.1 393.33"/><path class="cls-19" d="M122.78,291l4.44,5.19,5.36-3.94s-1.78-7.75-2.6-7.2l-7.2,4.88Z" transform="translate(-56.11 -49.94)"/><path class="cls-12" d="M122.78,291l4.44,5.19,5.36-3.94s-1.78-7.75-2.6-7.2l-7.2,4.88Z" transform="translate(-56.11 -49.94)"/><path class="cls-19" d="M127.05,224.11l-19.59,17.66A8.88,8.88,0,0,0,106.27,252c4.88,9,16.51,27.08,16.51,27.08l5.7-4.1s-6.84-20.23-9.64-24.46a.57.57,0,0,1,.12-.77l16.58-13.66Z" transform="translate(-56.11 -49.94)"/><g class="cls-20"><path d="M127.05,224.11l-19.59,17.66A8.88,8.88,0,0,0,106.27,252c4.88,9,16.51,27.08,16.51,27.08l5.7-4.1s-6.84-20.23-9.64-24.46a.57.57,0,0,1,.12-.77l16.58-13.66Z" transform="translate(-56.11 -49.94)"/></g><path class="cls-19" d="M122.78,279v10.87l8-5.43s.53-9.18-2.32-9.54Z" transform="translate(-56.11 -49.94)"/><path class="cls-12" d="M122.78,279v10.87l8-5.43s.53-9.18-2.32-9.54Z" transform="translate(-56.11 -49.94)"/><path class="cls-7" d="M168.06,367.46a73.08,73.08,0,0,1-1.8,14.34c-5.7,24.09-28.23,58.65-28.23,58.65l-13.15-4.93s18.57-50,20.71-62.75c1.74-10.4-14.29-48.39-18.94-63.83-3.36-11.16,1.37-21.6,1.37-21.6s12.08,1.64,26.4,2.54l5.63,25.92,2.6,12a139.2,139.2,0,0,1,4.3,20.43l.12.9c.1.78.2,1.55.28,2.3A112.94,112.94,0,0,1,168.06,367.46Z" transform="translate(-56.11 -49.94)"/><path class="cls-10" d="M168.06,367.46a73.08,73.08,0,0,1-1.8,14.34c-5.7,24.09-28.23,58.65-28.23,58.65l-13.15-4.93s18.57-50,20.71-62.75c1.74-10.4-14.29-48.39-18.94-63.83-3.36-11.16,1.37-21.6,1.37-21.6s12.08,1.64,26.4,2.54l5.63,25.92,2.6,12a139.2,139.2,0,0,1,4.3,20.43l.12.9c.1.78.2,1.55.28,2.3A112.94,112.94,0,0,1,168.06,367.46Z" transform="translate(-56.11 -49.94)"/><path class="cls-21" d="M168.06,367.46c-1.86-6.4-9.49-25.39-19.49-44.23-10.09-19,1-23.56,1-23.56,4.23,1.54,7.71,7.89,10.48,16.13,3.27,9.73,5.55,22.14,6.9,32.43l.12.9c.1.78.2,1.55.28,2.3A112.94,112.94,0,0,1,168.06,367.46Z" transform="translate(-56.11 -49.94)"/><path class="cls-7" d="M177.23,293.28l-34.15-2.59s-2.34,7.88-2.34,13.57c0,20.8,14.68,19.78,19.21,30.19,10,23.08,19.12,37.24,20.23,43.73.87,5.1,1,68.48,1,68.48h13.32s11.68-49.6,9.5-69.74S177.23,293.28,177.23,293.28Z" transform="translate(-56.11 -49.94)"/><g class="cls-22"><path class="cls-3" d="M177.23,293.28l-34.15-2.59s-2.34,7.88-2.34,13.57c0,20.8,14.68,19.78,19.21,30.19,10,23.08,19.12,37.24,20.23,43.73.87,5.1,1,68.48,1,68.48h13.32s11.68-49.6,9.5-69.74S177.23,293.28,177.23,293.28Z" transform="translate(-56.11 -49.94)"/></g><path class="cls-7" d="M223.28,225.6l19.84,10a1.39,1.39,0,0,1,.27.21l1.29,1.48-1.84-.06a.85.85,0,0,1-.35-.08l-20.18-9.43a.89.89,0,0,1-.45-1.13l.2-.49A.89.89,0,0,1,223.28,225.6Z" transform="translate(-56.11 -49.94)"/><path id="_Path_" data-name="&lt;Path&gt;" class="cls-19" d="M226.86,234.06l6.38-3.44-1.05,9.19s-5.24,3.08-8.41-.14Z" transform="translate(-56.11 -49.94)"/><path id="_Path_2" data-name="&lt;Path&gt;" class="cls-19" d="M240.41,234.31l-.5,2.93a2.18,2.18,0,0,1-1.86,1.79l-5.86.78,1.05-9.19,5.49,1.21A2.18,2.18,0,0,1,240.41,234.31Z" transform="translate(-56.11 -49.94)"/><path class="cls-19" d="M178.36,233.71s5.19,26.09,17.1,30.42c10.72,3.89,32.26-23,32.26-23l-.86-7.07-27,17.52L189,224.09A135.5,135.5,0,0,0,178.36,233.71Z" transform="translate(-56.11 -49.94)"/><path class="cls-7" d="M128.61,457.38a16.23,16.23,0,0,1-2.21-2,.2.2,0,0,1,0-.26.22.22,0,0,1,.23-.12c.49.08,4.74.75,5.28,1.94a.73.73,0,0,1-.06.7,1.29,1.29,0,0,1-1,.63A3.57,3.57,0,0,1,128.61,457.38Zm-1.42-1.84c1.49,1.51,2.81,2.34,3.57,2.3a.8.8,0,0,0,.65-.42.26.26,0,0,0,0-.27C131.16,456.47,128.91,455.86,127.19,455.54Z" transform="translate(-56.11 -49.94)"/><path class="cls-7" d="M126.42,455.4a.36.36,0,0,1-.08-.12.25.25,0,0,1,0-.22c.09-.14,2.72-3,4.45-1.77l.16.1c.46.4.42.76.31,1-.49,1-3.55,1.28-4.79,1Zm4.17-1.73c-1.11-.81-2.84.71-3.56,1.38,1.37.12,3.57-.27,3.86-.86,0,0,.12-.17-.19-.45Z" transform="translate(-56.11 -49.94)"/><path class="cls-16" d="M116.46,450.6l-4.48,8a1.49,1.49,0,0,0,.6,2c2.43,1.42,5.7,3.42,7.12,4.06,7.33,3.29,11.68,2.42,15.83,2.33a2.25,2.25,0,0,0,1.93-2.94l-.18-.62a1.55,1.55,0,0,0-1.07-1.08c-6-1.59-9.49-8.22-9.49-8.22L118.35,450A1.46,1.46,0,0,0,116.46,450.6Z" transform="translate(-56.11 -49.94)"/><path class="cls-7" d="M194.34,460.26a16.72,16.72,0,0,1-2.7-1.29.2.2,0,0,1-.11-.24.21.21,0,0,1,.18-.17c.49-.07,4.76-.65,5.62.33a.72.72,0,0,1,.14.69,1.28,1.28,0,0,1-.76.89A3.58,3.58,0,0,1,194.34,460.26Zm-1.9-1.35c1.87,1,3.37,1.43,4.09,1.17a.79.79,0,0,0,.5-.59.25.25,0,0,0-.05-.27C196.51,458.65,194.18,458.72,192.44,458.91Z" transform="translate(-56.11 -49.94)"/><path class="cls-7" d="M191.45,459.18l-.11-.08a.26.26,0,0,1,0-.23c.05-.16,1.74-3.66,3.76-3l.18.05c.55.25.62.61.58.85-.2,1.07-3,2.26-4.29,2.38Zm3.49-2.86c-1.29-.45-2.51,1.51-3,2.35,1.35-.28,3.34-1.29,3.45-1.93,0,0,.06-.2-.32-.37Z" transform="translate(-56.11 -49.94)"/><path class="cls-16" d="M180.11,460.58c-.12,1.7-.06,4.26,0,7,0,1.33.82,3.52,2,4,1.86.71,4.88.49,8.3-.06,4.47-.73,11.89-4.57,14.9-6.2a2.57,2.57,0,0,0,1.13-3.3c-.14-.29-.27-.52-.38-.71a.92.92,0,0,0-.84-.47c-4.09.12-4.68-.07-8.5-.07a6.41,6.41,0,0,1-5.45-2.68s-4.6,1.42-8.17.68S180.11,460.58,180.11,460.58Z" transform="translate(-56.11 -49.94)"/><path class="cls-7" d="M145.78,209.37A92.14,92.14,0,0,0,134.61,215a32.67,32.67,0,0,0-9.25,7.5,3.75,3.75,0,0,0-1.06,2.63,4,4,0,0,0,.7,1.59,43.79,43.79,0,0,0,11.59,12.1,56.52,56.52,0,0,1,7-19.44c1.68-2.89,3.68-5.77,4-9.09Z" transform="translate(-56.11 -49.94)"/><path class="cls-23" d="M196.4,189.62a24.19,24.19,0,0,0,.62,6.51c-1.48.5-3.08-.8-3.08-.8Z" transform="translate(-56.11 -49.94)"/><path d="M195.26,195.34a2.35,2.35,0,0,1-.75-.11c-1.8-.53-2.69-2.87-2-5.23s2.72-3.84,4.51-3.31a3,3,0,0,1,2,2,5.21,5.21,0,0,1,0,3.2C198.44,193.9,196.86,195.34,195.26,195.34Zm1-8.26c-1.36,0-2.75,1.24-3.28,3.06-.62,2.09.12,4.16,1.65,4.61a2.1,2.1,0,0,0,.61.09c1.38,0,2.76-1.28,3.28-3.06a4.78,4.78,0,0,0,0-2.9,2.57,2.57,0,0,0-1.65-1.71A2.1,2.1,0,0,0,196.28,187.08Z" transform="translate(-56.11 -49.94)"/><path class="cls-19" d="M171.3,188.29l3.32,6.79,4.54,9.27a8.32,8.32,0,0,0-2,2.33c-1.29,1.93-2.3,3.32,1.64,6.86a2.9,2.9,0,0,1,.94,3c-.42,1.31-1.9,2.41-6.48,1a21.75,21.75,0,0,1-10.93-8c-1.34-1.79-.81-2.86.85-4.31C168,201.25,170.14,194.12,171.3,188.29Z" transform="translate(-56.11 -49.94)"/><path class="cls-19" d="M193.53,198.77a13.33,13.33,0,0,1-10.12,6,12.41,12.41,0,0,1-4.12-.35,11.39,11.39,0,0,1-7.48-6.25c-2.86-6-.92-11.06,1.61-20a12.88,12.88,0,0,1,20.76-6.4C201.55,178.18,198.18,191.55,193.53,198.77Z" transform="translate(-56.11 -49.94)"/><path class="cls-12" d="M183.41,204.81a12.41,12.41,0,0,1-4.12-.35l-.13-.11,1.36-1.37S180.59,204.54,183.41,204.81Z" transform="translate(-56.11 -49.94)"/><path class="cls-16" d="M179.43,167a3.43,3.43,0,0,0-3.56-2.14,6,6,0,0,1,2.36,3Z" transform="translate(-56.11 -49.94)"/><path class="cls-16" d="M206.86,181.57c-2.34,2.46-8.38,1.42-8.38,1.42l-2.55-2.5c-.57-.5-1.75-1.05-2.58,1.84l-1.13,2.45s-2.94,4.82-7.33,7.14c-.62.33-2.35,1.53-2.35,1.53a9.92,9.92,0,0,1-10.14.39l-1.17-.46a3.32,3.32,0,0,1-2.1-2.89c-.28-4.94-.54-17.08,3.48-21,3.69-3.64,5.67-2.49,7-2.85a12.43,12.43,0,0,1,9.83-.9c9.88,3.4,9.51,9.24,11.5,8.95a5.53,5.53,0,0,0,3.15-1.67c-.17.29-2.3,3.7-1.29,3.81s3.71-2.25,3.48-1.57-3.14,3.68-1.38,4.42c1.59.67,4.21-1.7,4.21-1.7S209.21,179.1,206.86,181.57Z" transform="translate(-56.11 -49.94)"/><rect x="193.38" y="180.17" width="0.5" height="14.31" transform="translate(-125.3 196.66) rotate(-56.76)"/><path class="cls-19" d="M182.94,186.46a8.45,8.45,0,0,0,1.55,5.84c1.59,2.16,4.35.7,5.13-1.81.7-2.26.21-5.84-2-7.08S183.22,183.89,182.94,186.46Z" transform="translate(-56.11 -49.94)"/><path class="cls-16" d="M145.78,209.37s-9.49,11.2-12.56,37.2S127.65,290,127.65,290l50,3.56s-1.9-16.71,0-29.54,14.66-43.38,11.84-48.3c-1.43-2.5-12.25-7.29-22.53-8C157,207,145.78,209.37,145.78,209.37Z" transform="translate(-56.11 -49.94)"/><path class="cls-7" d="M177,214.76c-2.65,2.37-4.14,5.76-5.2,9.14a12,12,0,0,0-.74,4.34,13.68,13.68,0,0,0,1.93,5.37l4.68,8.89a47.74,47.74,0,0,0,16.74-3.67,2.78,2.78,0,0,0,1.66-1.28c.51-1.2-2.62-10.69-3-14.43C192.11,215.14,184,208.42,177,214.76Z" transform="translate(-56.11 -49.94)"/><path class="cls-7" d="M157,207.83l4.14-3.22a5.11,5.11,0,0,1,3.43-1.07c2.88.15,8.61.15,13.47,2,4.41,1.71,3.47,5.45,3.47,5.45S173.07,207.57,157,207.83Z" transform="translate(-56.11 -49.94)"/><path class="cls-7" d="M128.35,284.94c-2.77,3.07-2.77,12.54-2.77,12.54S151.35,300,162.86,300a101.51,101.51,0,0,0,13.25-.89l.76-5.58,1.63,5.18,2.29-.51-3.63-10.78Z" transform="translate(-56.11 -49.94)"/><path class="cls-7" d="M141.07,440.48c.06,0-2.76,5-2.76,5l-16-6.32,1.35-4.87Z" transform="translate(-56.11 -49.94)"/><path class="cls-7" d="M197.64,441.23c.07,0-1,5.41-1,5.41H179.59l-.46-5Z" transform="translate(-56.11 -49.94)"/></g></g></svg>