<svg id="Layer_1" data-name="Layer 1" xmlns="http://www.w3.org/2000/svg" viewBox="0 0 1755 1571.9"><defs><style>.cls-1{fill:#d1c8ce;}.cls-2{fill:#9e8fae;}.cls-3{fill:#2191f2;}.cls-4{fill:#4f5569;}.cls-5{fill:#0092ff;}.cls-6{fill:#4b9fea;}.cls-7{fill:#1957c2;}.cls-8{fill:#0c97b3;}.cls-9{fill:#f5ab35;}.cls-10{fill:#031162;}.cls-11{fill:#7dadff;}.cls-12{fill:#ffcb30;}.cls-13{fill:#f8f8f8;}.cls-14{opacity:0.15;isolation:isolate;}.cls-15{fill:#000d41;}.cls-16{fill:#febac7;}.cls-17{fill:#746980;}.cls-18{fill:#2c4b80;}.cls-19{fill:#fff;}</style></defs><g id="Layer_1-2" data-name="Layer 1"><path class="cls-1" d="M580.1,1114.8v-50l-63-17.5a165.36,165.36,0,0,0-15.1-37l32.1-56.8-35.4-35.4L442.2,950a159.13,159.13,0,0,0-37.4-15.6L387.5,872h-50l-17.4,62.4A157.39,157.39,0,0,0,282.7,950l-56.5-31.9-35.4,35.4,32.1,56.8a158.26,158.26,0,0,0-15.1,36.9l-63,17.5v50l63.5,17.7a155.26,155.26,0,0,0,15.1,35.9l-32.6,57.6,35.4,35.4,57.8-32.7a162.13,162.13,0,0,0,35.5,14.7l17.8,64.2h50l17.9-64.2a157.08,157.08,0,0,0,35.5-14.6l57.9,32.8L534,1226l-32.6-57.6a156,156,0,0,0,15.1-36ZM362.4,1184a95.1,95.1,0,1,1,95.1-95.1h0a95.13,95.13,0,0,1-95.1,95.1Z" transform="translate(0 0)"/><path class="cls-1" d="M185.1,1036.9l5-21.3-25-13.7a71.72,71.72,0,0,0-2.7-17.2l19.3-20.9-11.6-18.6-27.2,7.9a67.78,67.78,0,0,0-14.4-10.4l-1.1-28.3-21.3-5L92.5,934.2A69.63,69.63,0,0,0,75,937.1L54.3,918,35.7,929.5l8,27.3A70.48,70.48,0,0,0,33.6,971L5,972.2,0,993.5l25.3,13.8a68.66,68.66,0,0,0,2.8,16.8L8.5,1045.3,20,1063.9l27.9-8.1a69.12,69.12,0,0,0,13.6,9.8l1.2,29.1,21.3,5,14-25.5a66.17,66.17,0,0,0,16.5-2.7l21.4,19.7,18.6-11.5-8.1-27.7a71.43,71.43,0,0,0,10-13.8Zm-99.5,7.7a41.5,41.5,0,1,1,49.9-30.9h0a41.48,41.48,0,0,1-49.9,30.9Z" transform="translate(0 0)"/><rect class="cls-2" x="550" y="281.9" width="2.5" height="982.8"/><path class="cls-3" d="M262.6,338.5h0a9.86,9.86,0,0,1-9.9-9.9h0a9.86,9.86,0,0,1,9.9-9.9h0a9.86,9.86,0,0,1,9.9,9.9h0A10,10,0,0,1,262.6,338.5Z" transform="translate(0 0)"/><path class="cls-2" d="M284.1,323.1h82.6a4,4,0,0,1,4,4v2.1a4,4,0,0,1-4,4H284.1a4,4,0,0,1-4-4v-2.1A4,4,0,0,1,284.1,323.1Z" transform="translate(0 0)"/><path class="cls-3" d="M262.6,449.7h0a9.86,9.86,0,0,1-9.9-9.9h0a9.86,9.86,0,0,1,9.9-9.9h0a9.86,9.86,0,0,1,9.9,9.9h0A9.92,9.92,0,0,1,262.6,449.7Z" transform="translate(0 0)"/><path class="cls-2" d="M284.1,434.3h82.6a4,4,0,0,1,4,4v2.1a4,4,0,0,1-4,4H284.1a4,4,0,0,1-4-4v-2.1A4,4,0,0,1,284.1,434.3Z" transform="translate(0 0)"/><path class="cls-3" d="M262.6,594.5h0a9.86,9.86,0,0,1-9.9-9.9h0a9.86,9.86,0,0,1,9.9-9.9h0a9.86,9.86,0,0,1,9.9,9.9h0A10,10,0,0,1,262.6,594.5Z" transform="translate(0 0)"/><path class="cls-2" d="M284.1,579.1h82.6a4,4,0,0,1,4,4v2.1a4,4,0,0,1-4,4H284.1a4,4,0,0,1-4-4v-2.1A4,4,0,0,1,284.1,579.1Z" transform="translate(0 0)"/><path class="cls-3" d="M262.6,631.9h0a9.86,9.86,0,0,1-9.9-9.9h0a9.86,9.86,0,0,1,9.9-9.9h0a9.86,9.86,0,0,1,9.9,9.9h0A9.92,9.92,0,0,1,262.6,631.9Z" transform="translate(0 0)"/><path class="cls-2" d="M284.1,616.5h82.6a4,4,0,0,1,4,4v2.1a4,4,0,0,1-4,4H284.1a4,4,0,0,1-4-4v-2.1A4,4,0,0,1,284.1,616.5Z" transform="translate(0 0)"/><path class="cls-3" d="M290.1,367.6h0a9.86,9.86,0,0,1-9.9-9.9h0a9.86,9.86,0,0,1,9.9-9.9h0a9.86,9.86,0,0,1,9.9,9.9h0A9.86,9.86,0,0,1,290.1,367.6Z" transform="translate(0 0)"/><path class="cls-2" d="M311.6,352.2h82.6a4,4,0,0,1,4,4v2.1a4,4,0,0,1-4,4H311.6a4,4,0,0,1-4-4v-2.1A4,4,0,0,1,311.6,352.2Z" transform="translate(0 0)"/><path class="cls-3" d="M290.1,396.7h0a9.86,9.86,0,0,1-9.9-9.9h0a9.86,9.86,0,0,1,9.9-9.9h0a9.86,9.86,0,0,1,9.9,9.9h0a9.86,9.86,0,0,1-9.9,9.9Z" transform="translate(0 0)"/><path class="cls-2" d="M311.6,381.3h117a4,4,0,0,1,4,4v2.1a4,4,0,0,1-4,4h-117a4,4,0,0,1-4-4v-2.1A4,4,0,0,1,311.6,381.3Z" transform="translate(0 0)"/><path class="cls-3" d="M290.1,477.6h0a9.92,9.92,0,0,1-10-9.8v-.1h0a9.86,9.86,0,0,1,9.9-9.9h0a9.86,9.86,0,0,1,9.9,9.9h0A9.9,9.9,0,0,1,290.1,477.6Z" transform="translate(0 0)"/><path class="cls-2" d="M311.6,462.2H455.7a4,4,0,0,1,4,4v2.1a4,4,0,0,1-4,4H311.6a4,4,0,0,1-4-4v-2.1A4,4,0,0,1,311.6,462.2Z" transform="translate(0 0)"/><path class="cls-3" d="M290.1,506.7h0a9.86,9.86,0,0,1-9.9-9.9h0a9.86,9.86,0,0,1,9.9-9.9h0a9.86,9.86,0,0,1,9.9,9.9h0A9.86,9.86,0,0,1,290.1,506.7Z" transform="translate(0 0)"/><path class="cls-2" d="M311.6,491.4h94.8a4,4,0,0,1,4,4v2.1a4,4,0,0,1-4,4H311.6a4,4,0,0,1-4-4v-2.1A4,4,0,0,1,311.6,491.4Z" transform="translate(0 0)"/><path class="cls-3" d="M315.5,533.3h0a7.81,7.81,0,0,1-7.8-7.8h0a7.81,7.81,0,0,1,7.8-7.8h0a7.81,7.81,0,0,1,7.8,7.8h0a7.81,7.81,0,0,1-7.8,7.8Z" transform="translate(0 0)"/><path class="cls-2" d="M494.6,529.1H333.3a4,4,0,0,1-4-4h0a4,4,0,0,1,4-4H494.5a4,4,0,0,1,4,4h0A3.87,3.87,0,0,1,494.6,529.1Z" transform="translate(0 0)"/><path class="cls-3" d="M315.5,556.3h0a7.81,7.81,0,0,1-7.8-7.8h0a7.81,7.81,0,0,1,7.8-7.8h0a7.81,7.81,0,0,1,7.8,7.8h0a7.81,7.81,0,0,1-7.8,7.8Z" transform="translate(0 0)"/><path class="cls-2" d="M428.6,552.1H333.3a4,4,0,0,1-4-4h0a4,4,0,0,1,4-4h95.3a4,4,0,0,1,4,4h0A4,4,0,0,1,428.6,552.1Z" transform="translate(0 0)"/><path class="cls-3" d="M262.6,673.8h0a9.86,9.86,0,0,1-9.9-9.9h0a9.86,9.86,0,0,1,9.9-9.9h0a9.86,9.86,0,0,1,9.9,9.9h0A10,10,0,0,1,262.6,673.8Z" transform="translate(0 0)"/><path class="cls-2" d="M284.1,658.4h82.6a4,4,0,0,1,4,4v2.1a4,4,0,0,1-4,4H284.1a4,4,0,0,1-4-4v-2.1A4,4,0,0,1,284.1,658.4Z" transform="translate(0 0)"/><path class="cls-3" d="M262.6,785h0a9.86,9.86,0,0,1-9.9-9.9h0a9.86,9.86,0,0,1,9.9-9.9h0a9.86,9.86,0,0,1,9.9,9.9h0A10,10,0,0,1,262.6,785Z" transform="translate(0 0)"/><path class="cls-2" d="M284.1,769.6h82.6a4,4,0,0,1,4,4v2.1a4,4,0,0,1-4,4H284.1a4,4,0,0,1-4-4v-2.1A4,4,0,0,1,284.1,769.6Z" transform="translate(0 0)"/><path class="cls-3" d="M262.6,929.8h0a9.86,9.86,0,0,1-9.9-9.9h0a9.86,9.86,0,0,1,9.9-9.9h0a9.86,9.86,0,0,1,9.9,9.9h0a10,10,0,0,1-9.9,9.9Z" transform="translate(0 0)"/><path class="cls-2" d="M284.1,914.4h82.6a4,4,0,0,1,4,4v2.1a4,4,0,0,1-4,4H284.1a4,4,0,0,1-4-4v-2.1A4,4,0,0,1,284.1,914.4Z" transform="translate(0 0)"/><path class="cls-3" d="M262.6,967.2h0a9.86,9.86,0,0,1-9.9-9.9h0a9.86,9.86,0,0,1,9.9-9.9h0a9.86,9.86,0,0,1,9.9,9.9h0a10,10,0,0,1-9.9,9.9Z" transform="translate(0 0)"/><path class="cls-2" d="M284.1,951.8h82.6a4,4,0,0,1,4,4v2.1a4,4,0,0,1-4,4H284.1a4,4,0,0,1-4-4v-2.1A4,4,0,0,1,284.1,951.8Z" transform="translate(0 0)"/><path class="cls-3" d="M290.1,702.9h0a9.86,9.86,0,0,1-9.9-9.9h0a9.86,9.86,0,0,1,9.9-9.9h0A9.86,9.86,0,0,1,300,693h0A9.92,9.92,0,0,1,290.1,702.9Z" transform="translate(0 0)"/><path class="cls-2" d="M311.6,687.5h82.6a4,4,0,0,1,4,4v2.1a4,4,0,0,1-4,4H311.6a4,4,0,0,1-4-4v-2.1A4,4,0,0,1,311.6,687.5Z" transform="translate(0 0)"/><path class="cls-3" d="M290.1,732h0a9.92,9.92,0,0,1-10-9.8v-.1h0a9.86,9.86,0,0,1,9.9-9.9h0a9.86,9.86,0,0,1,9.9,9.9h0A9.9,9.9,0,0,1,290.1,732Z" transform="translate(0 0)"/><path class="cls-2" d="M311.6,716.6h117a4,4,0,0,1,4,4v2.1a4,4,0,0,1-4,4h-117a4,4,0,0,1-4-4v-2.1A4,4,0,0,1,311.6,716.6Z" transform="translate(0 0)"/><path class="cls-3" d="M290.1,812.9h0a9.86,9.86,0,0,1-9.9-9.9h0a9.86,9.86,0,0,1,9.9-9.9h0A9.86,9.86,0,0,1,300,803h0A9.92,9.92,0,0,1,290.1,812.9Z" transform="translate(0 0)"/><path class="cls-2" d="M311.6,797.5H455.7a4,4,0,0,1,4,4v2.1a4,4,0,0,1-4,4H311.6a4,4,0,0,1-4-4v-2.1A4,4,0,0,1,311.6,797.5Z" transform="translate(0 0)"/><path class="cls-3" d="M290.1,842h0a9.86,9.86,0,0,1-9.9-9.9h0a9.86,9.86,0,0,1,9.9-9.9h0a9.86,9.86,0,0,1,9.9,9.9h0a9.86,9.86,0,0,1-9.9,9.9Z" transform="translate(0 0)"/><path class="cls-2" d="M311.6,826.6h94.8a4,4,0,0,1,4,4v2.1a4,4,0,0,1-4,4H311.6a4,4,0,0,1-4-4v-2.1A4,4,0,0,1,311.6,826.6Z" transform="translate(0 0)"/><path class="cls-3" d="M315.5,868.6h0a7.81,7.81,0,0,1-7.8-7.8h0a7.81,7.81,0,0,1,7.8-7.8h0a7.81,7.81,0,0,1,7.8,7.8h0A7.81,7.81,0,0,1,315.5,868.6Z" transform="translate(0 0)"/><path class="cls-2" d="M494.6,864.4H333.3a4,4,0,0,1-4-4h0a4,4,0,0,1,4-4H494.5a4,4,0,0,1,4,4h0A3.87,3.87,0,0,1,494.6,864.4Z" transform="translate(0 0)"/><path class="cls-3" d="M315.5,891.5h0a7.81,7.81,0,0,1-7.8-7.8h0a7.81,7.81,0,0,1,7.8-7.8h0a7.81,7.81,0,0,1,7.8,7.8h0A7.81,7.81,0,0,1,315.5,891.5Z" transform="translate(0 0)"/><path class="cls-2" d="M428.6,887.4H333.3a4,4,0,0,1-4-4h0a4,4,0,0,1,4-4h95.3a4,4,0,0,1,4,4h0A4,4,0,0,1,428.6,887.4Z" transform="translate(0 0)"/><path class="cls-4" d="M584.7,328.2h0a8.07,8.07,0,0,1-8.1-8.1h0a8.07,8.07,0,0,1,8.1-8.1h0a8.07,8.07,0,0,1,8.1,8.1h0a8.26,8.26,0,0,1-8.1,8.1Z" transform="translate(0 0)"/><path class="cls-5" d="M705.8,328.2H624.9a8.07,8.07,0,0,1-8.1-8.1h0a8.07,8.07,0,0,1,8.1-8.1h80.9a8.07,8.07,0,0,1,8.1,8.1h0a8.26,8.26,0,0,1-8.1,8.1Z" transform="translate(0 0)"/><path class="cls-6" d="M906.7,328.2H745.9a8.07,8.07,0,0,1-8.1-8.1h0a8.07,8.07,0,0,1,8.1-8.1H906.7a8.07,8.07,0,0,1,8.1,8.1h0A8.13,8.13,0,0,1,906.7,328.2Z" transform="translate(0 0)"/><path class="cls-4" d="M584.7,375.7h0a8.07,8.07,0,0,1-8.1-8.1h0a8.07,8.07,0,0,1,8.1-8.1h0a8.07,8.07,0,0,1,8.1,8.1h0a8.26,8.26,0,0,1-8.1,8.1Z" transform="translate(0 0)"/><path class="cls-7" d="M850.6,375.7H624.9a8.07,8.07,0,0,1-8.1-8.1h0a8.07,8.07,0,0,1,8.1-8.1H850.6a8.07,8.07,0,0,1,8.1,8.1h0a8.26,8.26,0,0,1-8.1,8.1Z" transform="translate(0 0)"/><path class="cls-5" d="M1301.2,375.7H890.7a8.07,8.07,0,0,1-8.1-8.1h0a8.07,8.07,0,0,1,8.1-8.1h410.5a8.07,8.07,0,0,1,8.1,8.1h0A8.13,8.13,0,0,1,1301.2,375.7Z" transform="translate(0 0)"/><path class="cls-4" d="M584.7,423.2h0a8.07,8.07,0,0,1-8.1-8.1h0a8.07,8.07,0,0,1,8.1-8.1h0a8.07,8.07,0,0,1,8.1,8.1h0A8.2,8.2,0,0,1,584.7,423.2Z" transform="translate(0 0)"/><path class="cls-7" d="M624.9,407h80.9a8.07,8.07,0,0,1,8.1,8.1h0a8.07,8.07,0,0,1-8.1,8.1H624.9a8.07,8.07,0,0,1-8.1-8.1h0A8.07,8.07,0,0,1,624.9,407Z" transform="translate(0 0)"/><path class="cls-4" d="M584.7,470.7h0a8.07,8.07,0,0,1-8.1-8.1h0a8.07,8.07,0,0,1,8.1-8.1h0a8.07,8.07,0,0,1,8.1,8.1h0a8.2,8.2,0,0,1-8.1,8.1Z" transform="translate(0 0)"/><path class="cls-6" d="M664.9,470.7h-40a8.07,8.07,0,0,1-8.1-8.1h0a8.07,8.07,0,0,1,8.1-8.1h40a8.07,8.07,0,0,1,8.1,8.1h0a8.13,8.13,0,0,1-8.1,8.1Z" transform="translate(0 0)"/><path class="cls-2" d="M850.6,470.7H705a8.07,8.07,0,0,1-8.1-8.1h0a8.07,8.07,0,0,1,8.1-8.1H850.6a8.07,8.07,0,0,1,8.1,8.1h0a8.2,8.2,0,0,1-8.1,8.1Z" transform="translate(0 0)"/><path class="cls-4" d="M584.7,518.2h0a8.07,8.07,0,0,1-8.1-8.1h0a8.07,8.07,0,0,1,8.1-8.1h0a8.07,8.07,0,0,1,8.1,8.1h0a8.2,8.2,0,0,1-8.1,8.1Z" transform="translate(0 0)"/><path class="cls-2" d="M754.3,518.2H673.4a8.07,8.07,0,0,1-8.1-8.1h0a8.07,8.07,0,0,1,8.1-8.1h80.9a8.07,8.07,0,0,1,8.1,8.1h0a8.2,8.2,0,0,1-8.1,8.1Z" transform="translate(0 0)"/><path class="cls-8" d="M991.8,518.2H794.4a8.07,8.07,0,0,1-8.1-8.1h0a8.07,8.07,0,0,1,8.1-8.1H991.8a8.07,8.07,0,0,1,8.1,8.1h0A8.07,8.07,0,0,1,991.8,518.2Z" transform="translate(0 0)"/><path class="cls-4" d="M584.7,565.7h0a8.07,8.07,0,0,1-8.1-8.1h0a8.07,8.07,0,0,1,8.1-8.1h0a8.07,8.07,0,0,1,8.1,8.1h0A8.2,8.2,0,0,1,584.7,565.7Z" transform="translate(0 0)"/><path class="cls-5" d="M1384.6,565.7H673.4a8.07,8.07,0,0,1-8.1-8.1h0a8.07,8.07,0,0,1,8.1-8.1h711.2a8.07,8.07,0,0,1,8.1,8.1h0A8.07,8.07,0,0,1,1384.6,565.7Z" transform="translate(0 0)"/><path class="cls-9" d="M1512.2,565.7h-82.1a8.07,8.07,0,0,1-8.1-8.1h0a8.07,8.07,0,0,1,8.1-8.1h82.1a8.07,8.07,0,0,1,8.1,8.1h0a8.07,8.07,0,0,1-8.1,8.1Z" transform="translate(0 0)"/><path class="cls-5" d="M1512.2,564.3h-82.1a8.18,8.18,0,0,1-8.1-8h0a8.07,8.07,0,0,1,8.1-8.1h82.1a8.07,8.07,0,0,1,8.1,8.1h0A8,8,0,0,1,1512.2,564.3Z" transform="translate(0 0)"/><path class="cls-4" d="M584.7,613.2h0a8.07,8.07,0,0,1-8.1-8.1h0a8.07,8.07,0,0,1,8.1-8.1h0a8.07,8.07,0,0,1,8.1,8.1h0a8.2,8.2,0,0,1-8.1,8.1Z" transform="translate(0 0)"/><path class="cls-4" d="M584.7,660.7h0a8.07,8.07,0,0,1-8.1-8.1h0a8.07,8.07,0,0,1,8.1-8.1h0a8.07,8.07,0,0,1,8.1,8.1h0a8.2,8.2,0,0,1-8.1,8.1Z" transform="translate(0 0)"/><path class="cls-8" d="M1318.1,660.7h-589a8.07,8.07,0,0,1-8.1-8.1h0a8.07,8.07,0,0,1,8.1-8.1h589a8.07,8.07,0,0,1,8.1,8.1h0A8.07,8.07,0,0,1,1318.1,660.7Z" transform="translate(0 0)"/><path class="cls-5" d="M1512.2,660.7H1360.1a8.07,8.07,0,0,1-8.1-8.1h0a8.07,8.07,0,0,1,8.1-8.1h152.2a8.07,8.07,0,0,1,8.1,8.1h0a8.22,8.22,0,0,1-8.2,8.1Z" transform="translate(0 0)"/><path class="cls-4" d="M584.7,708.2h0a8.07,8.07,0,0,1-8.1-8.1h0a8.07,8.07,0,0,1,8.1-8.1h0a8.07,8.07,0,0,1,8.1,8.1h0A8.2,8.2,0,0,1,584.7,708.2Z" transform="translate(0 0)"/><path class="cls-6" d="M713,708.2H673.4a8.07,8.07,0,0,1-8.1-8.1h0a8.07,8.07,0,0,1,8.1-8.1H713a8.07,8.07,0,0,1,8.1,8.1h0a8.2,8.2,0,0,1-8.1,8.1Z" transform="translate(0 0)"/><path class="cls-4" d="M584.7,755.1h0a8.07,8.07,0,0,1-8.1-8.1h0a8.07,8.07,0,0,1,8.1-8.1h0a8.07,8.07,0,0,1,8.1,8.1h0A8.2,8.2,0,0,1,584.7,755.1Z" transform="translate(0 0)"/><path class="cls-2" d="M754.3,755.1H673.4a8.07,8.07,0,0,1-8.1-8.1h0a8.07,8.07,0,0,1,8.1-8.1h80.9a8.07,8.07,0,0,1,8.1,8.1h0a8.2,8.2,0,0,1-8.1,8.1Z" transform="translate(0 0)"/><path class="cls-8" d="M991.8,755.1H794.4a8.07,8.07,0,0,1-8.1-8.1h0a8.07,8.07,0,0,1,8.1-8.1H991.8a8.07,8.07,0,0,1,8.1,8.1h0A8.07,8.07,0,0,1,991.8,755.1Z" transform="translate(0 0)"/><path class="cls-4" d="M584.7,802.6h0a8.07,8.07,0,0,1-8.1-8.1h0a8.07,8.07,0,0,1,8.1-8.1h0a8.07,8.07,0,0,1,8.1,8.1h0a8.2,8.2,0,0,1-8.1,8.1Z" transform="translate(0 0)"/><path class="cls-5" d="M1384.6,802.6H673.4a8.07,8.07,0,0,1-8.1-8.1h0a8.07,8.07,0,0,1,8.1-8.1h711.2a8.07,8.07,0,0,1,8.1,8.1h0A8.07,8.07,0,0,1,1384.6,802.6Z" transform="translate(0 0)"/><path class="cls-9" d="M1512.2,802.6h-82.1a8.07,8.07,0,0,1-8.1-8.1h0a8.07,8.07,0,0,1,8.1-8.1h82.1a8.07,8.07,0,0,1,8.1,8.1h0a8.07,8.07,0,0,1-8.1,8.1Z" transform="translate(0 0)"/><path class="cls-5" d="M1512.2,801.2h-82.1a8.07,8.07,0,0,1-8.1-8.1h0a8.07,8.07,0,0,1,8.1-8.1h82.1a8.07,8.07,0,0,1,8.1,8.1h0a8.07,8.07,0,0,1-8.1,8.1Z" transform="translate(0 0)"/><path class="cls-4" d="M584.7,850.1h0a8.07,8.07,0,0,1-8.1-8.1h0a8.07,8.07,0,0,1,8.1-8.1h0a8.07,8.07,0,0,1,8.1,8.1h0A8.2,8.2,0,0,1,584.7,850.1Z" transform="translate(0 0)"/><path class="cls-6" d="M1715.4,850.1H729.1A8.07,8.07,0,0,1,721,842h0a8.07,8.07,0,0,1,8.1-8.1h986.3a8.07,8.07,0,0,1,8.1,8.1h0A8.2,8.2,0,0,1,1715.4,850.1Z" transform="translate(0 0)"/><path class="cls-4" d="M584.7,897.6h0a8.07,8.07,0,0,1-8.1-8.1h0a8.07,8.07,0,0,1,8.1-8.1h0a8.07,8.07,0,0,1,8.1,8.1h0A8.2,8.2,0,0,1,584.7,897.6Z" transform="translate(0 0)"/><path class="cls-8" d="M893.6,897.6H729.1a8.07,8.07,0,0,1-8.1-8.1h0a8.07,8.07,0,0,1,8.1-8.1H893.6a8.07,8.07,0,0,1,8.1,8.1h0A8.2,8.2,0,0,1,893.6,897.6Z" transform="translate(0 0)"/><path class="cls-2" d="M1318.1,897.6H941.4a8.07,8.07,0,0,1-8.1-8.1h0a8.07,8.07,0,0,1,8.1-8.1h376.7a8.07,8.07,0,0,1,8.1,8.1h0A8.07,8.07,0,0,1,1318.1,897.6Z" transform="translate(0 0)"/><path class="cls-5" d="M1512.2,897.6H1360.1a8.07,8.07,0,0,1-8.1-8.1h0a8.07,8.07,0,0,1,8.1-8.1h152.2a8.07,8.07,0,0,1,8.1,8.1h0a8.22,8.22,0,0,1-8.2,8.1Z" transform="translate(0 0)"/><path class="cls-4" d="M584.7,945.1h0a8.07,8.07,0,0,1-8.1-8.1h0a8.07,8.07,0,0,1,8.1-8.1h0a8.07,8.07,0,0,1,8.1,8.1h0A8.2,8.2,0,0,1,584.7,945.1Z" transform="translate(0 0)"/><path class="cls-9" d="M673.4,928.9H713a8.07,8.07,0,0,1,8.1,8.1h0a8.07,8.07,0,0,1-8.1,8.1H673.4a8.07,8.07,0,0,1-8.1-8.1h0A8.13,8.13,0,0,1,673.4,928.9Z" transform="translate(0 0)"/><path class="cls-4" d="M584.7,992h0a8.07,8.07,0,0,1-8.1-8.1h0a8.07,8.07,0,0,1,8.1-8.1h0a8.07,8.07,0,0,1,8.1,8.1h0A8.26,8.26,0,0,1,584.7,992Z" transform="translate(0 0)"/><path class="cls-2" d="M754.3,992H673.4a8.07,8.07,0,0,1-8.1-8.1h0a8.07,8.07,0,0,1,8.1-8.1h80.9a8.07,8.07,0,0,1,8.1,8.1h0A8.26,8.26,0,0,1,754.3,992Z" transform="translate(0 0)"/><path class="cls-8" d="M991.8,992H794.4a8.07,8.07,0,0,1-8.1-8.1h0a8.07,8.07,0,0,1,8.1-8.1H991.8a8.07,8.07,0,0,1,8.1,8.1h0A8.13,8.13,0,0,1,991.8,992Z" transform="translate(0 0)"/><path class="cls-4" d="M584.7,1039.5h0a8.07,8.07,0,0,1-8.1-8.1h0a8.07,8.07,0,0,1,8.1-8.1h0a8.07,8.07,0,0,1,8.1,8.1h0A8.26,8.26,0,0,1,584.7,1039.5Z" transform="translate(0 0)"/><path class="cls-5" d="M1384.6,1039.5H673.4a8.07,8.07,0,0,1-8.1-8.1h0a8.07,8.07,0,0,1,8.1-8.1h711.2a8.07,8.07,0,0,1,8.1,8.1h0A8.13,8.13,0,0,1,1384.6,1039.5Z" transform="translate(0 0)"/><path class="cls-9" d="M1512.2,1039.5h-82.1a8.07,8.07,0,0,1-8.1-8.1h0a8.07,8.07,0,0,1,8.1-8.1h82.1a8.07,8.07,0,0,1,8.1,8.1h0a8.13,8.13,0,0,1-8.1,8.1Z" transform="translate(0 0)"/><path class="cls-5" d="M1512.2,1038.1h-82.1a8.07,8.07,0,0,1-8.1-8.1h0a8.07,8.07,0,0,1,8.1-8.1h82.1a8.07,8.07,0,0,1,8.1,8.1h0a8.07,8.07,0,0,1-8.1,8.1Z" transform="translate(0 0)"/><path class="cls-4" d="M584.7,1087h0a8.07,8.07,0,0,1-8.1-8.1h0a8.07,8.07,0,0,1,8.1-8.1h0a8.07,8.07,0,0,1,8.1,8.1h0A8.2,8.2,0,0,1,584.7,1087Z" transform="translate(0 0)"/><path class="cls-8" d="M1715.4,1087H729.1a8.07,8.07,0,0,1-8.1-8.1h0a8.07,8.07,0,0,1,8.1-8.1h986.3a8.07,8.07,0,0,1,8.1,8.1h0A8.2,8.2,0,0,1,1715.4,1087Z" transform="translate(0 0)"/><path class="cls-4" d="M584.7,1134.5h0a8.07,8.07,0,0,1-8.1-8.1h0a8.07,8.07,0,0,1,8.1-8.1h0a8.07,8.07,0,0,1,8.1,8.1h0A8.2,8.2,0,0,1,584.7,1134.5Z" transform="translate(0 0)"/><path class="cls-2" d="M1318.1,1134.5h-589a8.07,8.07,0,0,1-8.1-8.1h0a8,8,0,0,1,8-8.1h589a8.07,8.07,0,0,1,8.1,8.1h0a8,8,0,0,1-8,8.1Z" transform="translate(0 0)"/><path class="cls-6" d="M1512.2,1134.5H1360.1a8.07,8.07,0,0,1-8.1-8.1h0a8,8,0,0,1,8-8.1h152.2a8.07,8.07,0,0,1,8.1,8.1h0a8.06,8.06,0,0,1-8.1,8.1Z" transform="translate(0 0)"/><path class="cls-2" d="M1715.4,1134.5H1563.2a8.07,8.07,0,0,1-8.1-8.1h0a8.07,8.07,0,0,1,8.1-8.1h152.2a8.07,8.07,0,0,1,8.1,8.1h0A8.2,8.2,0,0,1,1715.4,1134.5Z" transform="translate(0 0)"/><path class="cls-4" d="M584.7,1182h0a8.07,8.07,0,0,1-8.1-8.1h0a8.07,8.07,0,0,1,8.1-8.1h0a8.07,8.07,0,0,1,8.1,8.1h0A8.2,8.2,0,0,1,584.7,1182Z" transform="translate(0 0)"/><path class="cls-9" d="M713,1182H673.4a8.07,8.07,0,0,1-8.1-8.1h0a8.07,8.07,0,0,1,8.1-8.1H713a8.07,8.07,0,0,1,8.1,8.1h0A8.2,8.2,0,0,1,713,1182Z" transform="translate(0 0)"/><path class="cls-7" d="M536.8,1104.9c-18.1-20.6-18.3-52-8.9-77.7s27.1-47.4,42.7-69.9,29.8-47.6,30.6-75c1.6-50.8-41.3-90.9-59-138.5a153.5,153.5,0,0,1-8.6-37.2c-10.8-107.9,47.9-228.3,152.2-265,13.2-5.9,30.8,2.9,30.8,16.2,1.5,29.4-26.4,52.9-26.4,83.7,0,2.9,1.5,8.8,2.9,10.3,52.9,29.4,63.2,82.3,8.9,117.5-4.4,4.4-5.9,10.3-9,15.7-3.6,9.3-4,19.3-2.5,29.3a105,105,0,0,0,9.6,28.8c8.8,18,20.9,34.6,27.4,53.6,17.9,51.9-9,108.3-40.8,153s-70.7,87.7-81.1,141.6c-3.3,17.3-3.7,35.5-11.5,51.3s-26.6,28.2-42.8,21.3l-3.2-14.2" transform="translate(0 0)"/><path class="cls-10" d="M581.9,944.2l-1.5-1.7c73.5-60.9,51.6-152.2,30.5-240.4l-5.4-22.8c-11.7-50.4,4.2-94.1,19.6-121.8,16.7-30,36.4-48.4,36.6-48.6l1.5,1.7c-.8.7-77.6,73.1-55.5,168.3l5.4,22.8C634.4,790.5,656.4,882.4,581.9,944.2Z" transform="translate(0 0)"/><path class="cls-11" d="M385.9,797.5C358.8,766.8,340.8,725.3,348,685s45.2-75.8,85.9-71c-22.6-35.3-45.9-72.7-48-114.5s25.5-88.4,67.3-91.2c17.7-1.2,34.9,7,47,19.8,12.4,13.5,19.7,31.1,18.3,48.7-8.8-11.7,2.9-26.4,14.7-29.4a25.61,25.61,0,0,1,20.6,4.4c11.7,10.3,19.1,25,16.2,39.7-8.8,35.2-33.8,67.5-16.2,104.3,27.9,55.8,52.9,110.1,65.5,170.7,2.5,9.8,4.8,19.7,6.8,29.7s3.8,20,5.2,30c3.9,26.8,5.5,55.2-5.1,80.1-12.7,29.7-41.3,51.2-50.3,82.2-14.2,49.2,25.8,105.7,1.9,151-17.3,32.8-63.9,38.7-94.3,21.9-43.3-24-44.4-81-33.4-123.6,10.4-40.3,33.5-74.9,27.1-118.8a104,104,0,0,0-15-40.4C442.9,847.6,410.3,825.1,385.9,797.5Z" transform="translate(0 0)"/><polygon class="cls-10" points="375.5 1097.6 678.3 1097.6 596.9 1259.7 447.2 1259.7 375.5 1097.6"/><path class="cls-10" d="M525.9,1089.2c-.3-.7-7.6-16.3-9-46.9-1.4-28.1,2.3-74.7,27.1-136.6,33.9-84.5-10.7-169-43.3-230.6-13.3-25.1-24.8-46.8-28.2-63.4-11.7-56.5,21.3-124.4,21.6-125.1l2,1c-.3.7-33,67.9-21.4,123.6,3.4,16.2,14.8,37.8,28,62.8,32.8,62.1,77.8,147.1,43.4,232.5-24.7,61.4-28.3,107.6-27,135.4,1.4,30.2,8.8,46.1,8.8,46.3Z" transform="translate(0 0)"/><path class="cls-10" d="M546.1,906.3l-2.3-.3c4.4-38-3.9-94.9-68.6-150.6-38.8-33.4-80-50.7-80.5-50.8l.9-2.1a342.8,342.8,0,0,1,81.1,51.2C512.8,784.8,554.2,836.5,546.1,906.3Z" transform="translate(0 0)"/><path class="cls-10" d="M489.3,653.4c-14.2-47.2-1.1-84,12.3-106.6,14.6-24.4,32.7-37.9,32.9-38l1.3,1.8c-.2.1-18,13.4-32.4,37.5-13.2,22.2-26,58.3-12.1,104.7Z" transform="translate(0 0)"/><path class="cls-10" d="M538.1,927.7l-2.3-.2c2.4-35.8-3.2-84.8-43.7-115.5-24.2-18.4-49.8-21.5-50.1-21.5l.3-2.2c.3,0,26.5,3.2,51.2,22C534.8,841.5,540.5,891.4,538.1,927.7Z" transform="translate(0 0)"/><path class="cls-10" d="M615.7,712.4l-2.3-.2c2.8-32.3,12.6-75.7,43.3-98.8,18.4-13.9,35.4-13.8,36.1-13.8v2.3c-.2,0-17-.1-34.8,13.4C628.1,637.9,618.5,680.6,615.7,712.4Z" transform="translate(0 0)"/><path class="cls-10" d="M381.5,699.5a7.1,7.1,0,1,1,7.1-7.1h0A7.13,7.13,0,0,1,381.5,699.5Zm0-12a4.9,4.9,0,1,0,4.9,4.9h0a5.11,5.11,0,0,0-4.9-4.9Z" transform="translate(0 0)"/><path class="cls-10" d="M705.3,601.8a5.8,5.8,0,1,1,5.8-5.8,5.8,5.8,0,0,1-5.8,5.8Zm0-9.3a3.5,3.5,0,1,0,3.5,3.5A3.54,3.54,0,0,0,705.3,592.5Z" transform="translate(0 0)"/><path class="cls-10" d="M425.7,795.9a6.6,6.6,0,1,1,6.6-6.6h0A6.66,6.66,0,0,1,425.7,795.9Zm0-11a4.4,4.4,0,1,0,4.4,4.4h0a4.51,4.51,0,0,0-4.4-4.4Z" transform="translate(0 0)"/><path class="cls-10" d="M498.5,481.8a5.6,5.6,0,1,1,5.6-5.6h0A5.59,5.59,0,0,1,498.5,481.8Zm0-9a3.35,3.35,0,0,0-3.4,3.3,3.35,3.35,0,0,0,6.7.1h0a3.42,3.42,0,0,0-3.3-3.4Z" transform="translate(0 0)"/><path class="cls-10" d="M544.8,509a5.6,5.6,0,1,1,5.6-5.6h0A5.72,5.72,0,0,1,544.8,509Zm0-9a3.35,3.35,0,1,0,3.3,3.4h0a3.35,3.35,0,0,0-3.3-3.4Z" transform="translate(0 0)"/><path class="cls-10" d="M671.8,504.1a8.3,8.3,0,1,1,8.3-8.3h0A8.41,8.41,0,0,1,671.8,504.1Zm0-14.2a6,6,0,1,0,6,6A6,6,0,0,0,671.8,489.9Z" transform="translate(0 0)"/><path class="cls-12" d="M1186.7,790.9a65.8,65.8,0,1,1-65.8-65.8h0a65.79,65.79,0,0,1,65.8,65.8Z" transform="translate(0 0)"/><path class="cls-13" d="M1086.7,834.8a3.88,3.88,0,0,0,3.9-3.8,3.63,3.63,0,0,0-1.2-2.8c-14.4-13.8-14.5-33.9-14.5-34.1a3.85,3.85,0,1,0-7.7-.1h0c0,1,.2,23.6,16.9,39.7A3.27,3.27,0,0,0,1086.7,834.8Z" transform="translate(0 0)"/><polygon class="cls-10" points="1396.7 1181.8 1450.6 904.5 1243.4 682 1254.3 666.8 1472.4 897.7 1417.8 1178.8 1396.7 1181.8"/><polygon class="cls-10" points="1267.3 680.5 1291.5 706.2 1266 706.2 1257.6 697.3 1267.3 680.5"/><polygon class="cls-10" points="1461.7 953.2 1445.1 933 1446.1 927.7 1466.9 926 1461.7 953.2"/><path class="cls-13" d="M1336.9,1216.7a2.69,2.69,0,0,1-2.7,2.7h-35.8a2.69,2.69,0,0,1-2.7-2.7v-27a2.69,2.69,0,0,1,2.7-2.7h35.8a2.69,2.69,0,0,1,2.7,2.7Z" transform="translate(0 0)"/><path class="cls-10" d="M1407.3,1191.1c-88.1,0-159.6,20.6-159.6,57.4h319.2C1566.8,1211.7,1495.4,1191.1,1407.3,1191.1Z" transform="translate(0 0)"/><path class="cls-10" d="M1407.3,1214.1c-16,0-12.8-12.2-6.8-22.9h6.8a509.55,509.55,0,0,1,55.3,3C1453.7,1200,1430,1214.1,1407.3,1214.1Z" transform="translate(0 0)"/><path class="cls-7" d="M1272.3,700.3a33.81,33.81,0,1,1,.9-47.8h0A33.9,33.9,0,0,1,1272.3,700.3Z" transform="translate(0 0)"/><path class="cls-10" d="M1260.2,687.7a16.34,16.34,0,1,1,.4-23.1,16.3,16.3,0,0,1-.4,23.1Z" transform="translate(0 0)"/><path class="cls-7" d="M1495.1,901a33.8,33.8,0,1,1-33.8-33.8A33.76,33.76,0,0,1,1495.1,901Z" transform="translate(0 0)"/><path class="cls-10" d="M1477.6,901a16.3,16.3,0,1,1-16.3-16.3h0a16.18,16.18,0,0,1,16.3,16.3Z" transform="translate(0 0)"/><path class="cls-7" d="M1441.1,1180.3a33.8,33.8,0,1,1-33.8-33.8h0a33.76,33.76,0,0,1,33.8,33.8Z" transform="translate(0 0)"/><path class="cls-10" d="M1423.6,1180.3a16.3,16.3,0,1,1-16.3-16.3h0A16.3,16.3,0,0,1,1423.6,1180.3Z" transform="translate(0 0)"/><rect class="cls-10" x="1214.83" y="671.84" width="21.1" height="51.8" transform="translate(-141.07 1045.87) rotate(-43.95)"/><path class="cls-7" d="M1038.1,745.4c65.8-63.4,126.8-104.5,186.2-45.1,54.6,54.6,13.8,121-51.9,184.4Z" transform="translate(0 0)"/><path class="cls-13" d="M1248.8,664.2a11.25,11.25,0,1,0,11.2,11.3h0a11.2,11.2,0,0,0-11.2-11.3Z" transform="translate(0 0)"/><path class="cls-13" d="M1461.3,889.5a11.2,11.2,0,1,0,11.2,11.2h0A11.18,11.18,0,0,0,1461.3,889.5Z" transform="translate(0 0)"/><path class="cls-13" d="M1407.3,1169.1a11.25,11.25,0,1,0,11.2,11.3h0A11.2,11.2,0,0,0,1407.3,1169.1Z" transform="translate(0 0)"/><path class="cls-14" d="M1317.7,1328.1c-1.5-17.5-18.1-30.6-35.3-34s-34.9.6-52.1,4.2A1377.69,1377.69,0,0,1,613,1286.8c-19.6-4.9-39.4-10.3-59.6-9.5s-41.2,8.8-52.5,25.5c-17.5,26-4.3,63.9,21.1,82.1s58.8,20.9,90,18.7,62.4-8.5,93.5-5.7c30.1,2.7,62.7,17.3,72,46.1,5.6,17.3-13,118.6,34.6,94.9,15.5-7.7,15.4-34.5,26.9-47.7,13-14.8,32.3-24.2,52.1-24.2,28,0,55,18.8,64.6,45.1,7.4,20,8.4,47,28.3,54.5s39.1-12.3,51.3-29.9l32.4-46.5c9.8-14.1,20-29.1,21.7-46.2s-8.7-36.7-25.8-38.9a746.21,746.21,0,0,1,176.7-30c16.9-.8,34.4-1.1,49.9-8S1319.2,1345,1317.7,1328.1Z" transform="translate(0 0)"/><polygon class="cls-10" points="686.7 1188 1167.7 1167 1137.9 1275.7 857.9 1393.1 679.5 1313.6 686.7 1188"/><polygon class="cls-11" points="738 1141.9 742.2 1227.4 1109.7 1227.4 1119 1048.5 738 1141.9"/><path class="cls-11" d="M856.2,810s-156.9,31.8-185.8,55.5-57.5,314.4-47.7,327.9,597.1,27.1,610.6,2-61.9-326.3-82.2-341.3S905.9,806.6,856.2,810Z" transform="translate(0 0)"/><path class="cls-15" d="M1109.7,1117.6h-.2a1.71,1.71,0,0,1-1.6-1.9h0c4.8-55.4,0-211.4,0-212.9a1.71,1.71,0,0,1,3.4-.4v.2c.1,1.6,4.8,157.8,0,213.4A1.52,1.52,0,0,1,1109.7,1117.6Z" transform="translate(0 0)"/><path class="cls-15" d="M722,1111.9h-.2a1.77,1.77,0,0,1-1.5-1.9h0c7.5-65.6-6-200.3-6.2-201.6a1.63,1.63,0,0,1,1.6-1.8,1.67,1.67,0,0,1,1.8,1.5c.1,1.4,13.7,136.4,6.2,202.4A1.65,1.65,0,0,1,722,1111.9Z" transform="translate(0 0)"/><path class="cls-16" d="M776.5,1181.3l-7.4-30a4,4,0,0,1,2.7-4.8l10.1-3.2a4,4,0,0,0,2.8-3.1l1.7-9.3a4,4,0,0,1,3.9-3.3h8.3a3.9,3.9,0,0,0,3.4-1.9l5.1-8.1a4,4,0,0,1,5.4-1.3l9.6,5.7a4.35,4.35,0,0,0,4,.1l5.6-3.2a4,4,0,0,1,5.3,1.3l20.2,30.5a4,4,0,0,1-1.1,5.5.1.1,0,0,0-.1.1l-4.5,2.7a4,4,0,0,1-5.1-.8h0a4,4,0,0,0-7,3.2l.2,1.3a4,4,0,0,1-2.2,4.2l-39.6,19.6c-.3.1-.5.2-.8.3-2.5.6-14.7,3.2-20-4.5A2.34,2.34,0,0,1,776.5,1181.3Z" transform="translate(0 0)"/><path class="cls-16" d="M1055.7,1181.3l7.4-30a4,4,0,0,0-2.7-4.8l-10.1-3.2a4,4,0,0,1-2.8-3.1l-1.7-9.3a4,4,0,0,0-3.9-3.3h-8.3a3.9,3.9,0,0,1-3.4-1.9l-5.1-8.1a4,4,0,0,0-5.4-1.3l-9.6,5.7a4.35,4.35,0,0,1-4,.1l-5.6-3.2a4,4,0,0,0-5.3,1.3L975,1150.7a4,4,0,0,0,1.1,5.5.1.1,0,0,1,.1.1l4.5,2.7a4,4,0,0,0,5.1-.8h0a3.88,3.88,0,0,1,5.6-.3,4.1,4.1,0,0,1,1.3,3.6l-.2,1.3a4,4,0,0,0,2.2,4.2l39.6,19.6c.3.1.5.2.8.3,2.5.6,14.7,3.2,20-4.5A2.38,2.38,0,0,0,1055.7,1181.3Z" transform="translate(0 0)"/><path class="cls-15" d="M769,1141.1h-.3l-94-13.8a1.77,1.77,0,0,1-1.4-2,1.75,1.75,0,0,1,1.9-1.4l94,13.8a1.67,1.67,0,0,1,1.4,2,1.62,1.62,0,0,1-1.6,1.4Z" transform="translate(0 0)"/><path class="cls-15" d="M1071.5,1146.1a1.69,1.69,0,0,1-1.7-1.7,1.81,1.81,0,0,1,1.4-1.7l76.4-13.6a1.73,1.73,0,0,1,.6,3.4l-76.4,13.6Z" transform="translate(0 0)"/><path class="cls-16" d="M831.1,742.7s-13.2,113.4,67.5,113.4c73.4,0,70.9-97.5,70.9-97.5s7.3-60.4-49.6-67.2S827.7,722.3,831.1,742.7Z" transform="translate(0 0)"/><path class="cls-10" d="M950,705.5s-17.9,35.1.2,53a46.37,46.37,0,0,1,13,43.7l-.2.8s30.5-24.2,36.1-73.1-16.6-79.8-35.4-76.3c0,0-7.5-37.6-55.3-34.1S821.3,619.2,804,657s12.9,71,12.9,71,2.3,40.1,18.7,75l-6.4-46.8S881.7,685.7,950,705.5Z" transform="translate(0 0)"/><path class="cls-16" d="M968.6,764.6,963.1,803s27.1-14.4,26.7-34c-.2-6.5-2.4-10.1-5.4-12C978.1,753,969.7,757.2,968.6,764.6Z" transform="translate(0 0)"/><path class="cls-16" d="M831.3,753.6,836,803s-26.1-15.1-25.6-34.7S831.3,753.6,831.3,753.6Z" transform="translate(0 0)"/><path class="cls-13" d="M773,1018.4h271.9a21.57,21.57,0,0,1,21.6,21.6v179.4a21.57,21.57,0,0,1-21.6,21.6H773a21.57,21.57,0,0,1-21.6-21.6V1040A21.51,21.51,0,0,1,773,1018.4Z" transform="translate(0 0)"/><path class="cls-17" d="M1061.3,1251.6H756.6a5.16,5.16,0,0,1-5.2-5.2h0a5.16,5.16,0,0,1,5.2-5.2h304.7a5.16,5.16,0,0,1,5.2,5.2h0A5.16,5.16,0,0,1,1061.3,1251.6Z" transform="translate(0 0)"/><path class="cls-2" d="M1015.9,1246a2.2,2.2,0,1,1-2.2-2.2,2.1,2.1,0,0,1,2.2,2.2Z" transform="translate(0 0)"/><rect class="cls-2" x="988" y="1243.8" width="18" height="4.5"/><path class="cls-7" d="M585.5,1115.1,1003,1368.6c-33.6,27.3-52.3,62.9-59.8,104.9l-434.8-219a79.67,79.67,0,0,1-35.3-107,89.71,89.71,0,0,1,6.5-10.7h0A79.39,79.39,0,0,1,585.5,1115.1Z" transform="translate(0 0)"/><path class="cls-10" d="M882.3,1407.1l-26.5,22.4,52.4,26.4c15.7-13.5,46.3-39.6,50.8-41.3C965.2,1412.2,882.3,1407.1,882.3,1407.1Z" transform="translate(0 0)"/><path class="cls-10" d="M1003,1368.6l69.5,39.2a10.65,10.65,0,0,1,4,14.6v.1c-18.3,32-79.5,135.4-111.8,149.4,0,0-26.1-8.4-16.1-42.5s-3.5-65.7-3.5-65.7S947.4,1384.1,1003,1368.6Z" transform="translate(0 0)"/><path class="cls-18" d="M964.7,1571.9c32.3-14,93.5-117.4,111.8-149.4a10.72,10.72,0,0,0-1.2-12.4C1062.9,1417.4,1009.1,1454.8,964.7,1571.9Z" transform="translate(0 0)"/><path class="cls-7" d="M1222.1,1143.8,781,1353.4c30.7,30.6,45.6,67.9,48.9,110.4l454.9-173.6a79.73,79.73,0,0,0,46-102.9,78.08,78.08,0,0,0-5.4-11.3h0A79.58,79.58,0,0,0,1222.1,1143.8Z" transform="translate(0 0)"/><path class="cls-10" d="M781,1353.4l-73.2,31.9a10.7,10.7,0,0,0-5.5,14.1v.1c15,33.7,65.3,142.7,96.1,160,0,0,26.8-5.7,20.3-40.7s10.1-65,10.1-65S834.7,1374.5,781,1353.4Z" transform="translate(0 0)"/><path class="cls-18" d="M798.4,1559.6c-30.7-17.3-81.1-126.3-96.1-160a10.57,10.57,0,0,1,2.5-12.2C716.5,1395.9,766.2,1438.6,798.4,1559.6Z" transform="translate(0 0)"/><path class="cls-11" d="M623.4,1118.5c-3.1,40.6-3.7,70.7-.7,74.8,2.8,3.8,51.1,7.6,119.6,10.5Z" transform="translate(0 0)"/><path class="cls-11" d="M1063.9,1209.1c92.9-1.1,164.8-5.1,169.4-13.7,3.3-6.2,1.3-28.9-3.9-59.9Z" transform="translate(0 0)"/><path class="cls-15" d="M797.9,1347.1a1.74,1.74,0,0,1-.8-3.3l79.1-37.5a1.77,1.77,0,0,1,1.7,3.1c-.1,0-.1.1-.2.1l-79.1,37.6A1.63,1.63,0,0,1,797.9,1347.1Z" transform="translate(0 0)"/><path class="cls-7" d="M385.4,153.3H571a20.1,20.1,0,0,1,20.1,20.1V275.2A20.1,20.1,0,0,1,571,295.3H385.4a20.1,20.1,0,0,1-20.1-20.1V173.4A20.1,20.1,0,0,1,385.4,153.3Z" transform="translate(0 0)"/><polygon class="cls-13" points="448.3 264.1 463 264.1 505.4 184.5 490.7 184.5 448.3 264.1"/><polygon class="cls-13" points="552.8 226.7 552.7 226.7 529.9 194.5 514.3 194.5 537.1 226.8 514.3 257.5 529.9 257.5 552.7 226.9 552.8 226.9 552.8 226.8 552.8 226.7"/><polygon class="cls-13" points="403.6 226.7 403.7 226.7 426.5 194.5 440.7 194.5 417.9 226.8 440.7 257.5 426.5 257.5 403.7 226.9 403.6 226.9 403.6 226.8 403.6 226.7"/><path class="cls-7" d="M1184.8,322h221.9a24.11,24.11,0,0,1,24.1,24.1V467.9a24.11,24.11,0,0,1-24.1,24.1H1184.8a24.11,24.11,0,0,1-24.1-24.1V346.1A24.11,24.11,0,0,1,1184.8,322Z" transform="translate(0 0)"/><path class="cls-13" d="M1234.3,402.9a15.07,15.07,0,0,1-4.9,3.8l-2.6,1.7a23.26,23.26,0,0,0,2.6,1.7c1.3.8,2.5,1.7,3.7,2.6a7.36,7.36,0,0,1,1.9,2.7,14.69,14.69,0,0,1,.7,4.6v20.7c0,2.9.8,5,2.5,6.3s4.5,1.9,8.5,1.9v8.6h-4c-6,0-10.3-1.1-13-3.2s-4-5.7-3.9-10.6V419.3c0-2.3-.4-4-1.3-5a4.36,4.36,0,0,0-3.8-1.5h-3.3v-8.7h3.3a4.52,4.52,0,0,0,3.8-1.5,8.1,8.1,0,0,0,1.3-5V373.1c0-4.9,1.3-8.4,3.9-10.6s6.9-3.2,13-3.2h4v8.6c-4,0-6.8.6-8.5,1.9s-2.5,3.4-2.5,6.3v20.8C1235.6,399.8,1235.2,401.7,1234.3,402.9Z" transform="translate(0 0)"/><path class="cls-13" d="M1374,404.2v8.7h-3.3a4.52,4.52,0,0,0-3.8,1.5c-.8,1-1.2,2.7-1.2,5v24.4c0,5-1.3,8.5-3.9,10.6s-6.9,3.2-12.9,3.2h-4V449c4,0,6.8-.6,8.5-1.9s2.6-3.4,2.6-6.3V420.1a12,12,0,0,1,.7-4.6,6.36,6.36,0,0,1,1.9-2.7c1.2-.9,2.4-1.8,3.7-2.6a23.26,23.26,0,0,0,2.6-1.7l-2.6-1.7a18.4,18.4,0,0,1-4.9-3.8c-.9-1.2-1.3-3.2-1.3-5.9V376.3c0-2.9-.8-5.1-2.6-6.3s-4.5-1.9-8.5-1.9v-8.6h4c6,0,10.3,1.1,12.9,3.2s3.9,5.7,3.9,10.6v24.4c0,2.3.4,4,1.2,5a4.64,4.64,0,0,0,3.8,1.5Z" transform="translate(0 0)"/><circle class="cls-7" cx="1227.99" cy="92" r="72.3" transform="translate(294.62 895.27) rotate(-45)"/><path class="cls-19" d="M1194.6,74.4l-1.4,8.9,9.7,1.5,1.4-8.9,4.8.8-3.4,21.4-4.8-.8,1.3-8.4-9.7-1.5-1.3,8.4-4.8-.8,3.4-21.4Z" transform="translate(0 0)"/><path class="cls-19" d="M1229.5,80l-.7,4.1-6.5-1-2.8,17.2-4.8-.8,2.8-17.3-6.5-1,.7-4.1Z" transform="translate(0 0)"/><path class="cls-19" d="M1237.5,81.3l4.1,14.1,8.3-12.1,5.4.9-3.4,21.4-4.3-.7,2.3-14.4-7.6,11.3-3.1-.5-3.7-13.1-2.3,14.4-4.4-.7,3.4-21.4Z" transform="translate(0 0)"/><path class="cls-19" d="M1264.9,85.7l-2.7,17.1,9.2,1.5-.7,4.2-14-2.2,3.5-21.4Z" transform="translate(0 0)"/><circle class="cls-7" cx="77.46" cy="755.42" r="57.9" transform="translate(-511.47 276.03) rotate(-45)"/><path class="cls-19" d="M56,770.6a15.72,15.72,0,0,1-11.7-6.8l4.4-5.7c2.4,3,5.3,4.6,7.6,4.8,2.8.2,4.6-1.3,4.9-4.5l1.5-18-12.9-1.1.6-7.2,21.3,1.8-2.1,25.4C68.9,767.2,63.7,771.3,56,770.6Z" transform="translate(0 0)"/><path class="cls-19" d="M91.6,742.5c-2.8-.2-4.8.6-5,2.6-.6,6.9,19.6,4.7,18.4,18.2-.6,7.3-7.3,10.7-15.6,10a26.08,26.08,0,0,1-16-7.3l4-6.6c3.6,3.7,8.8,6.4,12.8,6.7,3.5.3,5.6-.8,5.9-3.1.6-7-19.7-4.6-18.5-17.8.6-6.8,6.8-10.5,15.4-9.8a25.84,25.84,0,0,1,13.8,5.3l-3.9,6.7A25.23,25.23,0,0,0,91.6,742.5Z" transform="translate(0 0)"/><path class="cls-7" d="M1505.1,1161.8h100.1a18.56,18.56,0,0,1,18.6,18.6v94a18.56,18.56,0,0,1-18.6,18.6H1505.1a18.56,18.56,0,0,1-18.6-18.6v-94A18.63,18.63,0,0,1,1505.1,1161.8Z" transform="translate(0 0)"/><path class="cls-19" d="M1560.5,1192.8v9.4l2.4.7a36.94,36.94,0,0,1,4.2,1.7l2.2,1.2,1.8-1.8,4.9-4.9,7.5,7.5-4.9,4.9-1.8,1.8,1.2,2.2a19.44,19.44,0,0,1,1.7,4.2l.7,2.4h9.4v10.7h-9.4l-.8,2.4a36.94,36.94,0,0,1-1.7,4.2l-1.2,2.2,1.8,1.8,4.9,4.9-7.5,7.5-4.9-4.9-1.8-1.8-2.2,1.2a19.44,19.44,0,0,1-4.2,1.7l-2.4.7v9.4h-10.7v-9.4l-2.4-.8a36.94,36.94,0,0,1-4.2-1.7l-2.2-1.2-1.8,1.8-4.9,4.9-7.5-7.5,4.9-4.9,1.8-1.8-1.2-2.2a19.44,19.44,0,0,1-1.7-4.2l-.7-2.4h-9.4V1222h9.4l.8-2.4a36.94,36.94,0,0,1,1.7-4.2l1.2-2.2-1.8-1.8-4.9-4.9,7.5-7.5,4.9,4.9,1.8,1.8,2.2-1.2a19.44,19.44,0,0,1,4.2-1.7l2.4-.7v-9.4h10.7m3.4-3.3h-17.4v10.3a27.65,27.65,0,0,0-4.7,2l-7.3-7.3-12.3,12.3,7.3,7.3a27.65,27.65,0,0,0-2,4.7h-10.3v17.4h10.3a27.65,27.65,0,0,0,2,4.7l-7.3,7.3,12.3,12.3,7.3-7.3a27.65,27.65,0,0,0,4.7,2v10.3h17.4v-10.3a27.65,27.65,0,0,0,4.7-2l7.3,7.3,12.3-12.3-7.3-7.3a27.65,27.65,0,0,0,2-4.7h10.3v-17.4H1583a27.65,27.65,0,0,0-2-4.7l7.3-7.3-12.3-12.3-7.3,7.3a27.65,27.65,0,0,0-4.7-2l-.1-10.3Z" transform="translate(0 0)"/><path class="cls-19" d="M1555.1,1212.5a14.9,14.9,0,1,1-14.9,14.9h0a14.94,14.94,0,0,1,14.9-14.9m0-3.4a18.3,18.3,0,1,0,18.3,18.3h0A18.31,18.31,0,0,0,1555.1,1209.1Z" transform="translate(0 0)"/><circle class="cls-7" cx="1555.1" cy="295.3" r="71.5"/><path class="cls-19" d="M1528.8,287a10.06,10.06,0,0,0,0,20.1,12.41,12.41,0,0,0,8.5-3.8l4.3,4.7a18.91,18.91,0,0,1-13.2,5.8c-9.8,0-17.1-7.2-17.1-16.7s7.5-16.5,17.4-16.5a18.86,18.86,0,0,1,12.9,5.4l-4.3,5.2A12,12,0,0,0,1528.8,287Z" transform="translate(0 0)"/><path class="cls-19" d="M1557.3,286.8c-2.5,0-4.2.9-4.2,2.7,0,6,17.4,2.7,17.3,14.4,0,6.4-5.6,9.8-12.8,9.8a22.91,22.91,0,0,1-14.4-5.2l2.9-6c3.4,3,8.1,4.9,11.6,4.9,3,0,4.8-1.1,4.8-3.1,0-6.2-17.4-2.6-17.4-14.1,0-5.9,5.1-9.7,12.6-9.7a23.47,23.47,0,0,1,12.4,3.5l-2.8,6.1A21.77,21.77,0,0,0,1557.3,286.8Z" transform="translate(0 0)"/><path class="cls-19" d="M1587,286.8c-2.5,0-4.2.9-4.2,2.7,0,6,17.4,2.7,17.3,14.4,0,6.4-5.6,9.8-12.8,9.8a22.91,22.91,0,0,1-14.4-5.2l2.9-6c3.4,3,8.1,4.9,11.6,4.9,3,0,4.8-1.1,4.8-3.1,0-6.2-17.4-2.6-17.4-14.1,0-5.9,5.1-9.7,12.6-9.7a23.47,23.47,0,0,1,12.4,3.5l-2.8,6.1A21.41,21.41,0,0,0,1587,286.8Z" transform="translate(0 0)"/><circle class="cls-7" cx="988.09" cy="224.41" r="58.7" transform="translate(130.73 764.41) rotate(-45)"/><path class="cls-19" d="M955.8,210.9l5,9L966,211l6.5.1-8.3,14,8.6,15.4-6.6-.1-5.6-9.9-5.7,9.7-6.4-.1,8.9-14.9-7.9-14.5Z" transform="translate(0 0)"/><path class="cls-19" d="M982.4,211.3l6.8,18.1,7.3-17.9,6.1.1-.4,29.4-4.9-.1.3-19.8-6.7,16.8h-3.6l-6.2-17-.3,19.8-5-.1.4-29.4Z" transform="translate(0 0)"/><path class="cls-19" d="M1013.4,211.7l-.3,23.6,10.4.1-.1,5.8-15.9-.2.4-29.4Z" transform="translate(0 0)"/><circle class="cls-2" cx="164" cy="509.9" r="59.3"/><path class="cls-19" d="M136.6,508.1c-1.7.5-2.7,1.6-2.2,3.1,1.5,5.1,12.8-1.4,15.8,8.5,1.6,5.4-1.4,9.5-6.4,11a15.12,15.12,0,0,1-11.4-1.3l.5-5.7c3.1,1.8,6.9,2.4,9.3,1.7,2.1-.6,3.1-2,2.6-3.7-1.6-5.2-12.8,1.5-15.7-8.3-1.5-5,1.1-9.2,6.4-10.8a14.73,14.73,0,0,1,9.5.4l-.4,5.8C141.6,507.8,138.4,507.5,136.6,508.1Z" transform="translate(0 0)"/><path class="cls-19" d="M181.2,522.9a10,10,0,0,1-5.5,5c-3.1.9-6.4-.6-9.1-3.9-6.9,1.8-13.8-2.6-16.1-10.5s1.1-15.6,8-17.7,14,2.3,16.4,10.3c1.9,6.1.2,12.1-3.8,15.5a4.32,4.32,0,0,0,3.7,1.2c1.1-.3,2.3-1.6,3.4-3.4Zm-15.9-4.5c3.8-1.2,5.8-5.9,4.3-10.7s-5.7-7.6-9.5-6.5-5.9,5.8-4.5,10.7,5.9,7.6,9.7,6.5Z" transform="translate(0 0)"/><path class="cls-19" d="M179.4,489.7l6.7,22.1,9.8-2.9,1.6,5.4-14.9,4.5-8.3-27.5Z" transform="translate(0 0)"/><circle class="cls-2" cx="733.7" cy="75.2" r="71"/><path class="cls-19" d="M714.6,71.6c1.6,6.8-1.8,11.7-9.2,13.4l-5.8,1.3,1.9,8.3-6.6,1.5L688.2,67l12.4-2.9C708,62.5,713.1,65.2,714.6,71.6Zm-6.2,1.7c-.8-3.2-3.2-4.4-6.9-3.5L696,71.1l2.3,9.9,5.5-1.3C707.5,78.8,709.2,76.6,708.4,73.3Z" transform="translate(0 0)"/><path class="cls-19" d="M723,59l2.8,12.1,13.2-3L736.2,56l6.6-1.5,6.7,29.1-6.6,1.5-2.7-11.5-13.2,3,2.7,11.5-6.6,1.5-6.7-29.1Z" transform="translate(0 0)"/><path class="cls-19" d="M775.5,57.6c1.6,6.8-1.8,11.7-9.2,13.4l-5.8,1.3,1.9,8.3-6.6,1.5L749.2,53l12.3-2.9C768.9,48.4,774,51.1,775.5,57.6Zm-6.2,1.6c-.8-3.2-3.2-4.4-6.9-3.5L756.9,57l2.3,9.9,5.5-1.3C768.4,64.7,770.1,62.5,769.3,59.2Z" transform="translate(0 0)"/><circle class="cls-3" cx="1639.3" cy="642.1" r="41.4"/><path class="cls-19" d="M1628.8,637.9a6,6,0,0,0-5.6,6.1,5.87,5.87,0,0,0,5.6,5.6,7.09,7.09,0,0,0,4.9-2.3l2.5,2.7a11.74,11.74,0,0,1-7.7,3.5,9.69,9.69,0,0,1-10-9.3v-.4c0-5.5,4.3-9.6,10.1-9.7a10.6,10.6,0,0,1,7.5,3.1l-2.5,3.1A6.25,6.25,0,0,0,1628.8,637.9Z" transform="translate(0 0)"/><path class="cls-19" d="M1652,641.8l-.5,4.1h3.7l-.3,3h-3.7l-.5,4.3h-3l.5-4.3h-4.1l-.5,4.3h-3l.5-4.3h-3.7l.3-3h3.8l.5-4.1h-3.7l.3-3h3.7l.5-4.5h3l-.6,4.5h4.1l.5-4.5h3l-.5,4.5h3.7l-.3,3Zm-3,0h-4.1l-.5,4.1h4.1Z" transform="translate(0 0)"/><circle class="cls-7" cx="252.59" cy="1134.62" r="63.7" transform="translate(-728.31 510.93) rotate(-45)"/><path class="cls-19" d="M239.2,1123a10,10,0,0,0,.1,19.9,12.62,12.62,0,0,0,8.4-3.8l4.3,4.6a18.45,18.45,0,0,1-13,5.8c-9.6.1-17-7-17-16.4s7.3-16.4,17.1-16.4a18.09,18.09,0,0,1,12.8,5.3l-4.2,5.2A12,12,0,0,0,239.2,1123Z" transform="translate(0 0)"/><path class="cls-19" d="M278.7,1129.5l-.8,7h6.2l-.5,5.1h-6.3l-.9,7.4h-5.1l.9-7.4h-7l-.9,7.4h-5.2l.9-7.4h-6.3l.5-5.1h6.4l.8-7h-6.2l.5-5.1H262l.9-7.7H268l-.9,7.7h7l.9-7.7h5.2l-.9,7.7h6.3l-.5,5.1Zm-5.1,0h-7l-.8,7h7Z" transform="translate(0 0)"/><circle class="cls-2" cx="1450" cy="732" r="66"/><path class="cls-19" d="M1426.6,725.2a10.26,10.26,0,0,0,0,20.5,12.55,12.55,0,0,0,8.7-3.9l4.4,4.8a19.06,19.06,0,0,1-13.4,5.9c-9.9,0-17.4-7.4-17.4-17s7.7-16.8,17.7-16.8a19,19,0,0,1,13.1,5.5l-4.4,5.3A12,12,0,0,0,1426.6,725.2Z" transform="translate(0 0)"/><path class="cls-19" d="M1462.9,739.1h-8.1v8h-4.7v-8H1442v-4.8h8.1v-8.1h4.7v8.1h8.1Z" transform="translate(0 0)"/><path class="cls-19" d="M1486.9,739.1h-8.1v8h-4.7v-8H1466v-4.8h8.1v-8.1h4.7v8.1h8.1Z" transform="translate(0 0)"/><path class="cls-2" d="M186.7,266.9l-1.6-.1c.3-3.3.6-6.6,1-9.8l1.6.2C187.3,260.3,186.9,263.6,186.7,266.9Zm3-22.7-1.6-.3c.6-3.2,1.2-6.5,2-9.7l1.6.4c-.8,3.2-1.5,6.4-2,9.6Zm5.1-22.3-1.6-.4c.9-3.1,1.8-6.3,2.8-9.5l1.6.5c-1,3.1-2,6.3-2.8,9.4Zm7.2-21.7-1.5-.6c1.2-3.1,2.4-6.1,3.7-9.2l1.5.6c-1.4,3-2.6,6.1-3.7,9.2Zm9-21-1.5-.7c1.4-2.9,2.9-5.9,4.5-8.8l1.5.8q-2.4,4.2-4.5,8.7ZM221.9,159l-1.4-.8c1.7-2.8,3.4-5.6,5.2-8.4l1.4.9a97.31,97.31,0,0,0-5.2,8.3Zm12.5-19.2-1.3-1c1.9-2.7,3.9-5.4,5.9-7.9l1.3,1c-2.1,2.5-4,5.2-5.9,7.9Zm14.1-18.1-1.3-1.1c2.1-2.5,4.3-5,6.5-7.4l1.2,1.1c-2.2,2.4-4.3,4.9-6.4,7.4ZM264,104.8l-1.2-1.2c2.3-2.3,4.7-4.6,7.1-6.9L271,98c-2.4,2.2-4.8,4.5-7,6.8Zm197.9-1.4a42.09,42.09,0,0,1-10-1.2l.4-1.6a38.22,38.22,0,0,0,9.6,1.1ZM475,101l-.6-1.5a28.14,28.14,0,0,0,8.1-5l1.1,1.2A30.75,30.75,0,0,1,475,101Zm-35.5-3.7a39.4,39.4,0,0,1-8-6.1l1.2-1.2a36.18,36.18,0,0,0,7.7,5.8Zm-158.7-8L279.7,88c2.5-2.1,5.1-4.2,7.6-6.3l1,1.3c-2.5,2-5.1,4.1-7.5,6.3ZM491,84.5l-1.5-.6a30.13,30.13,0,0,0,1.8-9.4l1.6.1a33.41,33.41,0,0,1-1.9,9.9Zm-67-4.3c-.2-.4-.3-.8-.5-1.2a48.42,48.42,0,0,1-2.3-8.5l1.6-.3a37.31,37.31,0,0,0,2.2,8.1,3.7,3.7,0,0,0,.5,1.1Zm-125.2-5-1-1.3c2.7-1.9,5.4-3.8,8.1-5.6l.9,1.4a95.35,95.35,0,0,0-8,5.5ZM318,62.6l-.8-1.4c2.8-1.7,5.7-3.3,8.6-4.9l.8,1.4c-3,1.6-5.9,3.2-8.6,4.9Zm171.4-.7a46.21,46.21,0,0,0-3.9-8.8l1.4-.8a46.23,46.23,0,0,1,4.1,9.1Zm-66.7-4.4-1.6-.2a52.51,52.51,0,0,1,2.2-9.7l1.6.5a47.72,47.72,0,0,0-2.2,9.4Zm-84.6-5.8-.7-1.5c3-1.4,6-2.8,9-4.1l.7,1.5C344,48.9,341,50.3,338.1,51.7Zm139.4-8.8a37.41,37.41,0,0,0-7.4-5.7l-.3-.2.8-1.4.3.2a49.12,49.12,0,0,1,7.7,5.9Zm-118.4-.2-.6-1.5q4.65-1.8,9.3-3.3l.5,1.6C365.3,40.4,362.2,41.5,359.1,42.7Zm71.1-6.5-1.4-.8A54.65,54.65,0,0,1,434,28c-2.6,0-5.2,0-8,.1l-.1-1.6c3.4-.2,6.7-.2,9.9-.1l-.1,1.6h-.3l.4.3a62.63,62.63,0,0,0-5.6,7.9Zm-49.3-.6-.4-1.6q4.8-1.35,9.6-2.4l.4,1.6q-4.8,1-9.6,2.4Zm77.2-3.9a76.17,76.17,0,0,0-9.4-2.4l.3-1.6a80.8,80.8,0,0,1,9.7,2.4Zm-54.9-1.1L403,29c2.4-.4,4.9-.8,7.3-1.1l2.5-.3.2,1.6-2.5.3c-2.4.4-4.9.8-7.3,1.1Zm41.7-11.5-1-1.3a66.62,66.62,0,0,1,8.2-5.7l.8,1.4a71.93,71.93,0,0,0-8,5.6ZM609,13.9c-2.7,0-5.6-.1-8.5-.2l.1-1.6c2.8.1,5.7.2,8.4.2h1.4v1.6Zm-21.6-1.4c-3.1-.4-6.3-.8-9.8-1.3l.2-1.6c3.5.5,6.7.9,9.7,1.3ZM564.6,9.1l-8.5-1.5-1.2-.2.3-1.6,1.2.2,8.5,1.5ZM464.6,8,464,6.5a80.46,80.46,0,0,1,9.5-3l.4,1.6A66.35,66.35,0,0,0,464.6,8ZM542,5.2c-3.5-.6-6.7-1.1-9.7-1.5l.2-1.6c3,.4,6.2.9,9.8,1.5ZM486.7,2.6,486.5,1q4.8-.6,9.9-.9l.1,1.6c-3.4.2-6.7.5-9.8.9Zm32.6-.4c-3.3-.3-6.6-.5-9.8-.6V0q4.8.15,9.9.6Z" transform="translate(0 0)"/><path class="cls-2" d="M1406.8,263.1l-1-1.3a88.21,88.21,0,0,0,7.6-6.1l1.1,1.2A90.78,90.78,0,0,1,1406.8,263.1Zm17-15.6-1.2-1.1c2.1-2.5,4.1-5,6-7.7l1.3,1a91,91,0,0,1-6.1,7.8Zm13-19.1-1.4-.8c1.5-2.9,2.9-5.8,4.2-8.8l1.5.6a93,93,0,0,1-4.3,9Zm8.6-21.5-1.6-.5c.9-3.1,1.6-6.3,2.2-9.5l1.6.3a52.51,52.51,0,0,1-2.2,9.7Zm3.9-22.8-1.6-.1c.1-1.9.2-3.8.2-5.7,0-1.4,0-2.7-.1-4l1.6-.1c.1,1.4.1,2.7.1,4.1,0,2-.1,3.9-.2,5.8Zm-3-22.7c-.6-3.2-1.3-6.4-2.2-9.5l1.6-.5c.9,3.2,1.7,6.4,2.3,9.7Zm-6.8-21.7c-1.4-3-2.9-5.8-4.5-8.6l1.4-.8a91.74,91.74,0,0,1,4.6,8.8Zm-12-19.4c-2-2.5-4.2-5-6.4-7.4l1.2-1.1a91.86,91.86,0,0,1,6.5,7.5Zm-16-16.2c-2.5-2-5.2-4-7.9-5.8l.9-1.4c2.7,1.8,5.4,3.8,8,5.9Zm-19.1-12.3c-2.9-1.5-5.9-2.8-8.9-4l.6-1.5c3,1.2,6.1,2.6,9,4.1Zm-21.2-8a77.6,77.6,0,0,0-9.6-1.9l.3-1.6c3.3.5,6.5,1.2,9.7,2Zm-32.3-2.6-.2-1.6a87,87,0,0,1,8.9-.4h1v1.6h-1a82.5,82.5,0,0,0-8.6.4Z" transform="translate(0 0)"/><path class="cls-2" d="M1625.3,747.1h-4.4v-1.6c3.3.1,6.6.1,9.8,0v1.6Zm-17.6-.6c-3.2-.2-6.5-.5-9.8-.8l.2-1.6c3.3.3,6.6.6,9.8.8Zm36.2-.1-.2-1.6c3.3-.3,6.6-.7,9.7-1.1l.2,1.6C1650.5,745.7,1647.2,746.1,1643.9,746.4Zm-59.1-2.1c-3.3-.4-6.5-.9-9.8-1.4l.2-1.6c3.3.5,6.5.9,9.7,1.4Zm81.9-1.4-.4-1.6c3.2-.7,6.4-1.5,9.5-2.5l.5,1.6c-3.2.9-6.4,1.7-9.6,2.5Zm-104.7-2c-3.3-.5-6.5-1.1-9.7-1.7l.3-1.6c3.2.6,6.5,1.1,9.7,1.7Zm126.7-5-.6-1.5c3-1.3,6-2.7,8.8-4.2l.8,1.5q-4.5,2.25-9,4.2Zm20.3-11-.9-1.4c2.7-1.8,5.3-3.8,7.9-5.8l1,1.3a78.59,78.59,0,0,1-8,5.9Zm17.9-14.6-1.2-1.2q3.45-3.45,6.6-7.2l1.3,1A93.21,93.21,0,0,1,1726.9,710.3Zm14.6-18-1.4-.9a71.2,71.2,0,0,0,4.8-8.5l1.5.7C1744.9,686.6,1743.2,689.5,1741.5,692.3Zm9.9-20.9-1.6-.5a76.17,76.17,0,0,0,2.4-9.4l1.6.3a74.84,74.84,0,0,1-2.4,9.6Zm2-22.8a62,62,0,0,0-.7-9.6l1.6-.4v.1a79.1,79.1,0,0,1,.7,9.7Zm-3.6-22.3a78.18,78.18,0,0,0-3.6-9.1l1.5-.7a79.63,79.63,0,0,1,3.6,9.2Zm-9.9-20.4a84,84,0,0,0-5.8-7.9l1.3-1c2.1,2.6,4.1,5.3,5.9,8Zm-14.5-17.6c-2.3-2.2-4.7-4.5-7.2-6.7l1.1-1.2c2.6,2.2,5,4.5,7.3,6.7ZM1708,573.5c-2.6-1.9-5.3-3.8-8.1-5.6l.9-1.4c2.8,1.8,5.5,3.7,8.1,5.6Zm-19.3-12.4c-2.8-1.6-5.7-3.2-8.6-4.7l.8-1.5c3,1.5,5.9,3.1,8.7,4.7Zm-20.4-10.5c-3-1.4-5.9-2.8-8.9-4.2l.7-1.5c3,1.4,6,2.8,8.9,4.2Zm-20.8-9.6c-3-1.4-6-2.8-9-4.1l.7-1.5c3,1.4,5.9,2.8,8.9,4.1Zm-20.8-9.9c-3.1-1.6-6-3-8.8-4.5l.8-1.5c2.8,1.5,5.6,3,8.7,4.5Zm-20.2-11c-2.9-1.8-5.7-3.5-8.3-5.3l.9-1.3c2.6,1.8,5.4,3.5,8.3,5.3ZM1587.6,507c-2.6-2.1-5.1-4.3-7.5-6.5l1.1-1.2c2.3,2.2,4.8,4.3,7.4,6.4Zm-16.5-16.2a90.41,90.41,0,0,1-5.8-8l1.4-.9a89,89,0,0,0,5.8,7.9Zm-12.4-19.5c-1.4-3-2.8-6.1-3.9-9.2l1.6-.6a89.89,89.89,0,0,0,3.8,9Zm-7.5-21.9a79.73,79.73,0,0,1-1.4-9.8l1.6-.1a76.55,76.55,0,0,0,1.4,9.6Zm.3-22.9-1.6-.2a65.24,65.24,0,0,1,1.9-9.8l1.6.4a62.7,62.7,0,0,0-1.9,9.6Zm6.8-21.5-1.4-.8a66.62,66.62,0,0,1,5.7-8.2l1.3,1.1a53.87,53.87,0,0,0-5.6,7.9Z" transform="translate(0 0)"/><path class="cls-2" d="M247.6,895.9c-3.2-.6-6.5-1.3-9.7-2.1l.4-1.6c3.2.8,6.4,1.5,9.6,2Zm-22.3-5.8c-3.1-1.1-6.2-2.3-9.2-3.6l.6-1.5c3,1.3,6.1,2.5,9.1,3.6Zm-21.1-9.3c-2.9-1.6-5.8-3.2-8.6-5l.9-1.4c2.8,1.7,5.6,3.4,8.5,4.9Zm-19.5-12.4c-2.6-2-5.2-4-7.7-6.2l1.1-1.3c2.5,2.1,5,4.2,7.6,6.1Zm-17.4-15.2c-2.3-2.3-4.6-4.8-6.7-7.3l1.2-1.1c2.1,2.4,4.4,4.9,6.6,7.2Zm-14.9-17.6c-1.9-2.7-3.8-5.4-5.5-8.2l1.4-.9c1.7,2.8,3.6,5.5,5.5,8.1Zm-12-19.7c-1.5-2.9-2.9-6-4.1-9l1.5-.6c1.2,3,2.6,6,4.1,8.9Z" transform="translate(0 0)"/><path class="cls-2" d="M1105.3,277.8l-1.6-.3c.5-3.2,1-6.5,1.4-9.7l1.6.2C1106.3,271.3,1105.9,274.6,1105.3,277.8Zm2.8-22.8-1.6-.1c.3-3.3.4-6.6.5-9.8l1.6.1c-.1,3.1-.3,6.4-.5,9.8Zm-1-23c-.1-3.3-.3-6.6-.5-9.8l1.6-.1c.2,3.2.4,6.5.5,9.9Zm-2-22.8c-.5-3.3-1-6.5-1.7-9.7l1.6-.3c.6,3.2,1.2,6.5,1.7,9.8Zm-4.7-22.4c-.9-3-1.8-6-2.8-9l-.1-.4,1.6-.5.1.3c1,3,2,6,2.9,9.1Zm-7.9-21.4c-1.4-3-2.8-5.9-4.4-8.7l1.4-.8c1.6,2.9,3.1,5.9,4.5,8.8Zm-11.3-19.9c-1.8-2.7-3.8-5.3-5.8-7.9l1.3-1c2,2.6,4,5.2,5.9,8Zm-14.4-17.6c-2.3-2.3-4.7-4.6-7.1-6.7l1.1-1.3a92,92,0,0,1,7.2,6.8Zm-121.5-1.8a32.53,32.53,0,0,1-4.4-.3l.2-1.6a30.23,30.23,0,0,0,9.5-.2l.3,1.6a34.3,34.3,0,0,1-5.6.5Zm18.2-5.2-.8-1.4a36.62,36.62,0,0,0,7.5-6l1.2,1.1a39.78,39.78,0,0,1-7.9,6.3Zm-28.2-1-1.2-1.2a68.06,68.06,0,0,1,7.5-6.6l1,1.3a75.27,75.27,0,0,0-7.3,6.5Zm114-6.6c-2.7-1.8-5.5-3.5-8.3-5.1l.8-1.4c2.9,1.6,5.7,3.3,8.5,5.2Zm-95.8-6.8-.8-1.5a91.67,91.67,0,0,1,9-4.1l.6,1.5a77.68,77.68,0,0,0-8.8,4.1Zm25.1-3-1.5-.6.3-.6a31.91,31.91,0,0,0,1.3-4.4c-1.3.2-2.6.5-3.9.8l-.4-1.6,4.6-.9a23.36,23.36,0,0,0,.4-2.6l1.6.2-.3,2.1c1.1-.2,2.3-.3,3.4-.5l.2,1.6c-1.3.1-2.7.3-4,.5a44.44,44.44,0,0,1-1.5,5.2Zm50.5-.9a72.08,72.08,0,0,0-9.3-3l.4-1.6a72.44,72.44,0,0,1,9.3,3.1l-.2.8Zm-22-5.5c-3.2-.4-6.5-.6-9.7-.7V94.8c3.3.1,6.6.3,9.9.7ZM978.8,80.7a41.07,41.07,0,0,0-2.9-9.2l1.5-.6a55,55,0,0,1,3,9.5Zm-9.3-20.4a55.52,55.52,0,0,0-6.6-7.1L964,52a52.08,52.08,0,0,1,6.8,7.3ZM854,48.2l-.5-1.6c3.1-.9,6.3-1.8,9.5-2.7l.5,1.6C860.3,46.3,857.2,47.3,854,48.2Zm98.4-2.4a76.88,76.88,0,0,0-8.8-4l.6-1.6a81.91,81.91,0,0,1,9.1,4.1ZM876.1,42l-.4-1.6c3.4-.9,6.6-1.6,9.6-2.2l.3,1.6C882.7,40.4,879.5,41.2,876.1,42ZM931,38.3c-3.2-.6-6.4-1-9.7-1.3l.1-1.6c3.3.3,6.6.7,9.8,1.3Zm-32.5-.6-.2-1.6q5.1-.6,9.9-.9l.1,1.6c-3.1.2-6.4.5-9.8.9Z" transform="translate(0 0)"/></g></svg>